<?xml version="1.0" encoding="UTF-8"?>
<!DOCTYPE svg PUBLIC "-//W3C//DTD SVG 1.1//EN" "http://www.w3.org/Graphics/SVG/1.1/DTD/svg11.dtd">
<!-- Creator: CorelDRAW 2020 (64-Bit) -->
<svg xmlns="http://www.w3.org/2000/svg" xml:space="preserve" width="300px" height="130px" version="1.1" style="shape-rendering:geometricPrecision; text-rendering:geometricPrecision; image-rendering:optimizeQuality; fill-rule:evenodd; clip-rule:evenodd"
viewBox="0 0 300 130"
 xmlns:xlink="http://www.w3.org/1999/xlink"
 xmlns:xodm="http://www.corel.com/coreldraw/odm/2003">
 <defs>
  <style type="text/css">
   <![CDATA[
    .str0 {stroke:#189024;stroke-width:4;stroke-miterlimit:22.9256}
    .str1 {stroke:#189024;stroke-miterlimit:22.9256}
    .fil0 {fill:none}
    .fil1 {fill:#189024;fill-rule:nonzero}
   ]]>
  </style>
 </defs>
 <g id="Слой_x0020_1">
  <metadata id="CorelCorpID_0Corel-Layer"/>
  <line class="fil0 str0" x1="48" y1="69.59" x2="236.14" y2= "18.99" />
  <line class="fil0 str0" x1="60.22" y1="109.24" x2="246" y2= "59.27" />
  <line class="fil0 str1" x1="65.59" y1="103.5" x2="241.34" y2= "56.12" />
  <line class="fil0 str1" x1="53.5" y1="72.52" x2="234.24" y2= "23.42" />
  <path class="fil1" d="M80.4 87.25c1.35,5.21 -0.45,8.51 -5.39,9.9 -3.36,0.95 -5.96,0.35 -7.82,-1.8 -1.22,-1.39 -2.37,-3.99 -3.45,-7.81 -1,-3.54 -1.3,-6.36 -0.92,-8.45 0.54,-2.97 2.39,-4.89 5.53,-5.78 2.45,-0.7 4.52,-0.54 6.21,0.47 1.5,0.88 2.59,2.4 3.28,4.57l-5.52 1.57 -0.22 -0.79c-0.17,-0.6 -0.44,-1.1 -0.82,-1.49 -0.51,-0.51 -1.09,-0.67 -1.73,-0.48 -1.52,0.43 -1.51,3.36 0.03,8.8 0.88,3.13 1.47,4.99 1.75,5.61 0.61,1.32 1.49,1.81 2.65,1.48 0.63,-0.18 1.03,-0.76 1.21,-1.76 0.11,-0.8 0.09,-1.51 -0.09,-2.13l-0.11 -0.38 5.41 -1.53z"/>
  <path id="1" class="fil1" d="M98.26 77.74c1.02,3.6 1.43,6.3 1.22,8.09 -0.34,3.1 -2.21,5.12 -5.59,6.08 -3.39,0.96 -6.04,0.21 -7.95,-2.24 -1.12,-1.42 -2.19,-3.93 -3.21,-7.54 -1.01,-3.58 -1.41,-6.29 -1.19,-8.13 0.34,-3.12 2.19,-5.15 5.55,-6.1 3.36,-0.95 6.01,-0.19 7.92,2.29 1.16,1.44 2.24,3.96 3.25,7.55zm-5.66 1.6c-0.87,-3.06 -1.46,-4.94 -1.76,-5.65 -0.67,-1.54 -1.55,-2.16 -2.63,-1.85 -1.08,0.31 -1.5,1.29 -1.27,2.96 0.11,0.76 0.59,2.66 1.46,5.73 0.86,3.02 1.43,4.87 1.73,5.55 0.67,1.5 1.54,2.1 2.62,1.8 1.08,-0.31 1.51,-1.28 1.29,-2.9 -0.11,-0.74 -0.59,-2.61 -1.44,-5.64z"/>
  <path id="2" class="fil1" d="M113.87 61.2c0.03,0.32 0.1,0.65 0.19,0.96l6.1 21.57 -4.67 1.33 -8.67 -9.98 3.01 10.63c0.09,0.31 0.18,0.6 0.28,0.87l-5.04 1.42c-0.03,-0.3 -0.09,-0.6 -0.18,-0.9l-6.12 -21.63 4.94 -1.39 8.4 10.04 -3 -10.63c-0.08,-0.27 -0.19,-0.55 -0.33,-0.85l5.09 -1.44z"/>
  <path id="3" class="fil1" d="M133.6 59.56c-0.57,0.12 -1.05,0.24 -1.42,0.34l-8.24 2.33 1.48 5.25 8.73 -2.47 1.1 3.91 -8.72 2.47 2.49 8.79c0.08,0.31 0.18,0.61 0.29,0.89l-5.34 1.52c-0.07,-0.33 -0.14,-0.64 -0.23,-0.95l-5.88 -20.79c-0.09,-0.32 -0.19,-0.62 -0.3,-0.9l14.95 -4.23 1.09 3.84z"/>
  <path id="4" class="fil1" d="M153.21 74.34l-5.67 1.61c-0.03,-0.29 -0.08,-0.58 -0.17,-0.87l-5.87 -20.76c-0.09,-0.31 -0.2,-0.59 -0.32,-0.85l5.67 -1.6c0.03,0.28 0.08,0.58 0.17,0.89l5.88 20.76c0.07,0.27 0.18,0.54 0.31,0.82z"/>
  <path id="5" class="fil1" d="M177.42 67.46l-6 1.69c-0.14,-0.32 -0.33,-0.62 -0.58,-0.91l-7.36 -8.62 2.85 10.07c0.08,0.31 0.18,0.6 0.28,0.86l-5.52 1.56c-0.04,-0.3 -0.1,-0.61 -0.19,-0.92l-5.86 -20.73c-0.09,-0.29 -0.2,-0.6 -0.34,-0.92l7.14 -2.02c2.62,-0.74 4.83,-0.7 6.59,0.13 1.78,0.84 2.98,2.37 3.61,4.58 0.81,2.86 0.02,5.28 -2.36,7.25l7.74 7.98zm-11.2 -13.72c-0.31,-1.1 -0.88,-1.78 -1.69,-2.05 -0.76,-0.26 -1.85,-0.2 -3.25,0.18l1.75 6.19c1.54,-0.48 2.54,-1.02 3.01,-1.6 0.47,-0.58 0.53,-1.49 0.18,-2.72z"/>
  <path id="6" class="fil1" d="M196.32 62.18l-4.12 1.16c-0.02,-0.28 -0.08,-0.58 -0.17,-0.9l-2.74 -9.69 0.04 11.41 -2.73 0.77 -5.96 -9.97 2.81 9.91c0.09,0.32 0.19,0.6 0.32,0.86l-4.12 1.17c-0.06,-0.31 -0.13,-0.6 -0.21,-0.9l-6.12 -21.63 5.59 -1.58 6.93 14.24 -1.52 -15.77 5.56 -1.57 6.12 21.63c0.08,0.29 0.19,0.58 0.32,0.86z"/>
  <path id="7" class="fil1" d="M214.13 57.1l-15.05 4.26c-0.06,-0.37 -0.12,-0.69 -0.2,-0.96l-5.92 -20.91c-0.08,-0.3 -0.17,-0.58 -0.28,-0.87l14.94 -4.23 1.09 3.85c-0.56,0.09 -1.07,0.2 -1.53,0.33l-8.18 2.32 1.5 5.28 8.76 -2.48 1.11 3.91 -8.76 2.48 1.69 6 8.07 -2.28c0.44,-0.13 1,-0.31 1.67,-0.55l1.09 3.85z"/>
  <path id="8" class="fil1" d="M230.92 40.13c2.13,7.52 -0.36,12.29 -7.45,14.29l-5.37 1.52c-0.03,-0.3 -0.09,-0.6 -0.17,-0.89l-5.88 -20.76c-0.08,-0.28 -0.18,-0.56 -0.32,-0.86l5.45 -1.54c7.04,-1.99 11.62,0.75 13.74,8.24zm-5.6 2.12c-0.74,-2.63 -1.39,-4.3 -1.95,-5.02 -1.1,-1.49 -2.83,-1.94 -5.19,-1.37l4.17 14.76c2.13,-0.74 3.32,-1.92 3.58,-3.54 0.21,-1.03 0.01,-2.64 -0.61,-4.83z"/>
 </g>
</svg>
