<?xml version="1.0" encoding="UTF-8"?>
<!DOCTYPE svg PUBLIC "-//W3C//DTD SVG 1.1//EN" "http://www.w3.org/Graphics/SVG/1.1/DTD/svg11.dtd">
<!-- Creator: CorelDRAW 2020 (64-Bit) -->
<svg xmlns="http://www.w3.org/2000/svg" xml:space="preserve" width="8.66986cm" height="8.66986cm" version="1.1" style="shape-rendering:geometricPrecision; text-rendering:geometricPrecision; image-rendering:optimizeQuality; fill-rule:evenodd; clip-rule:evenodd"
viewBox="0 0 8669.86 8669.86"
 xmlns:xlink="http://www.w3.org/1999/xlink"
 xmlns:xodm="http://www.corel.com/coreldraw/odm/2003">
 <defs>
  <style type="text/css">
   <![CDATA[
    .str0 {stroke:#17202B;stroke-width:101.6;stroke-miterlimit:22.9256}
    .str1 {stroke:#2B2A29;stroke-width:20;stroke-miterlimit:22.9256}
    .fil1 {fill:#17202B}
    .fil2 {fill:#17202B;fill-rule:nonzero}
    .fil0 {fill:url(#id0)}
   ]]>
  </style>
  <linearGradient id="id0" gradientUnits="userSpaceOnUse" x1="2912.24" y1="4386.91" x2="4903.93" y2="2041.41">
   <stop offset="0" style="stop-opacity:1; stop-color:#A74993"/>
   <stop offset="0.419608" style="stop-opacity:1; stop-color:#F08887"/>
   <stop offset="0.690196" style="stop-opacity:1; stop-color:#F49C67"/>
   <stop offset="1" style="stop-opacity:1; stop-color:#F9B854"/>
  </linearGradient>
 </defs>
 <g id="Слой_x0020_1">
  <metadata id="CorelCorpID_0Corel-Layer"/>
  <path class="fil0 str0" d="M2788.52 2263.48c566.46,-633.71 1526.92,-721.79 2145.23,-196.75 618.32,525.05 660.36,1464.41 93.9,2098.11 -566.46,633.7 -1526.92,721.79 -2145.23,196.74 -618.32,-525.04 -660.36,-1464.4 -93.9,-2098.1z"/>
  <path class="fil1 str1" d="M3342.15 4718.58l-1155.86 2012.69c-181.21,315.52 -690.06,46.59 -499.67,-286.02l1155.07 -2017.87c-12.66,22.11 234.46,208.05 424.06,268.81 21.37,6.85 52.08,20.08 76.4,22.39z"/>
  <path class="fil2" d="M3032.68 5775.18c-8.27,17.08 -20.56,29.75 -36.86,38.03 -16.3,8.28 -31.95,12.42 -46.96,12.42 -13.97,0 -26,-3.36 -36.09,-10.09 -10.08,-6.73 -14.61,-16.81 -13.58,-30.27 0,-3.1 0.65,-6.59 1.94,-10.47 1.3,-3.89 2.98,-8.15 5.05,-12.81 4.65,-11.38 11.64,-27.29 20.95,-47.73 9.32,-20.44 19.92,-43.08 31.82,-67.91 11.9,-24.84 24.58,-50.97 38.03,-78.39 13.46,-27.42 26.39,-54.33 38.81,-80.71 12.42,-26.39 23.93,-50.97 34.54,-73.73 10.6,-22.77 19.01,-41.91 25.22,-57.44 12.93,-25.35 23.8,-45.92 32.6,-61.7 8.79,-15.78 16.68,-28.45 23.67,-38.03 6.98,-9.57 13.58,-16.94 19.79,-22.12 6.21,-5.17 13.19,-9.83 20.95,-13.97 22.25,-11.38 41.78,-18.49 58.6,-21.34 16.81,-2.84 34.28,-4.78 52.39,-5.82 7.76,-0.52 16.81,-1.55 27.16,-3.1 10.35,-1.56 20.7,-3.24 31.04,-5.05 10.35,-1.81 20.57,-3.36 30.66,-4.65 10.09,-1.3 18.76,-1.95 26,-1.95 17.07,0 29.49,4.27 37.25,12.81 7.76,8.54 11.13,18.76 10.09,30.66 -0.51,11.9 -4.27,24.83 -11.25,38.8 -6.99,13.97 -16.17,27.55 -27.55,40.75 -11.39,13.19 -24.58,25.35 -39.58,36.48 -15.01,11.12 -30.79,19.53 -47.35,25.22l0.78 0c-11.9,3.62 -21.47,6.08 -28.72,7.37 -7.24,1.3 -13.19,1.94 -17.85,1.94 -5.17,0 -8.92,-0.52 -11.25,-1.55 -2.33,-1.03 -4.14,-2.07 -5.43,-3.1 -1.3,-1.04 -2.07,-2.07 -2.33,-3.11 -0.26,-1.03 -1.17,-1.55 -2.72,-1.55 -1.55,0 -3.36,1.29 -5.43,3.88 -2.07,2.59 -4.27,5.69 -6.6,9.31 -2.33,3.62 -4.65,7.38 -6.98,11.26 -2.33,3.88 -4.01,6.85 -5.05,8.92 -15,26.91 -29.23,47.22 -42.68,60.93 -13.46,13.71 -22.51,22.63 -27.17,26.77l80.72 -6.21 3.88 0c11.9,0 20.82,3.63 26.77,10.87 5.95,7.24 8.67,15.26 8.15,24.06 -1.03,11.38 -6.72,19.4 -17.07,24.06 -9.31,4.14 -15.65,8.15 -19.02,12.03 -3.36,3.88 -5.95,7.76 -7.76,11.64 -1.81,3.88 -3.88,7.63 -6.21,11.25 -2.32,3.62 -7.63,7.12 -15.91,10.48 -8.27,3.36 -20.69,6.6 -37.25,9.7 -16.56,3.11 -39.32,5.95 -68.3,8.54l-29.49 54.33c-7.76,12.93 -15.65,25.74 -23.67,38.41 -8.02,12.68 -14.1,23.42 -18.24,32.21 -1.03,1.04 -2.2,3.24 -3.49,6.6 -1.3,3.36 -2.85,7.5 -4.66,12.42 -1.81,4.91 -3.88,10.09 -6.21,15.52 -2.33,5.43 -4.78,10.22 -7.37,14.36l-0.78 0.77z"/>
  <path id="1" class="fil2" d="M3541.03 5668.08c-3.1,1.55 -9.7,3.49 -19.79,5.82 -10.09,2.33 -21.73,4.92 -34.92,7.76 -13.2,2.85 -26.78,5.43 -40.75,7.76 -13.97,2.33 -26.13,3.75 -36.47,4.27 0.51,9.83 4.26,16.95 11.25,21.34 6.98,4.4 13.06,6.6 18.24,6.6 7.24,0 15.13,-1.29 23.67,-3.88 8.54,-2.59 17.2,-5.43 26,-8.54 8.79,-3.1 17.46,-5.95 26,-8.53 8.54,-2.59 16.68,-3.88 24.45,-3.88 5.17,0 10.47,1.16 15.91,3.49 5.43,2.33 10.21,5.3 14.35,8.92 2.59,10.35 5.31,16.3 8.15,17.85 2.85,1.56 5.82,2.33 8.93,2.33 -0.52,0 -0.13,0.13 1.16,0.39 1.3,0.26 2.72,1.17 4.27,2.72 1.55,1.55 2.98,4.01 4.27,7.37 1.29,3.36 1.68,8.15 1.16,14.36 -0.51,10.86 -7.24,20.44 -20.17,28.71 -12.94,8.28 -29.11,15.4 -48.51,21.35 -19.4,5.95 -40.62,10.47 -63.64,13.58 -23.03,3.1 -44.89,4.66 -65.58,4.66 -25.36,0 -46.57,-2.33 -63.65,-6.99 -17.07,-4.66 -30.65,-11.38 -40.74,-20.18 -10.09,-8.79 -17.08,-19.27 -20.96,-31.43 -3.88,-12.16 -5.3,-26 -4.26,-41.52 1.03,-16.04 4.13,-32.6 9.31,-49.67 5.17,-17.08 11.9,-34.02 20.18,-50.84 8.28,-16.81 17.59,-33.11 27.94,-48.89 10.35,-15.78 21.47,-30.14 33.37,-43.08 15.52,-17.59 31.69,-34.15 48.51,-49.67 16.81,-15.52 34.92,-29.23 54.32,-41.13 19.41,-11.9 40.36,-21.35 62.87,-28.33 22.51,-6.99 47.47,-10.48 74.89,-10.48 10.87,0 21.35,1.17 31.44,3.49 10.09,2.33 19.01,6.34 26.77,12.03 7.76,5.7 13.71,13.33 17.85,22.9 4.14,9.57 5.95,21.86 5.44,36.86 -1.04,13.97 -4.4,31.05 -10.09,51.23l0 -0.78c-8.28,21.22 -16.3,38.94 -24.06,53.17 -7.76,14.22 -16.56,26.38 -26.39,36.47 -9.83,10.09 -21.21,19.15 -34.15,27.17 -12.93,8.02 -28.46,16.17 -46.57,24.44l0 0.78zm-5.43 -124.95c0.52,-2.59 -1.03,-4.4 -4.66,-5.44 -3.62,-1.03 -6.72,-1.55 -9.31,-1.55 -9.31,0 -18.24,2.59 -26.77,7.76 -8.54,5.18 -16.43,11.9 -23.68,20.18 -7.24,8.28 -13.97,17.59 -20.17,27.94 -6.21,10.35 -11.65,20.96 -16.3,31.82l3.1 0c10.35,0 21.22,-3.1 32.6,-9.31 11.38,-6.21 21.86,-13.58 31.43,-22.12 9.57,-8.54 17.59,-17.46 24.06,-26.78 6.47,-9.31 9.7,-16.81 9.7,-22.5z"/>
  <path id="2" class="fil2" d="M3915.9 5799.24c-24.32,17.08 -51.61,30.01 -81.88,38.81 -30.27,8.79 -60.15,13.19 -89.64,13.19 -17.08,0 -33.5,-1.68 -49.28,-5.04 -15.79,-3.37 -29.63,-8.41 -41.53,-15.14 -11.9,-6.72 -21.21,-14.87 -27.94,-24.44 -6.72,-9.58 -9.83,-20.31 -9.31,-32.21 0.52,-10.35 3.62,-18.89 9.31,-25.61 5.7,-6.73 12.94,-10.09 21.73,-10.09 1.56,0 3.24,0.13 5.05,0.38 1.81,0.26 3.49,0.39 5.04,0.39 6.73,0 12.03,-2.07 15.91,-6.21 3.89,-4.14 7.25,-8.66 10.09,-13.58 2.85,-4.91 5.7,-9.44 8.54,-13.58 2.85,-4.14 6.86,-6.21 12.03,-6.21l26.39 0c15.52,0 30.53,-0.39 45.01,-1.16 14.49,-0.78 27.56,-2.33 39.2,-4.66 11.64,-2.33 21.34,-5.3 29.1,-8.93 7.76,-3.62 12.94,-8.53 15.52,-14.74 -5.69,-6.73 -11.9,-11.9 -18.62,-15.52 -6.73,-3.63 -13.71,-7.25 -20.96,-10.87 -8.79,-4.14 -17.2,-8.54 -25.22,-13.19 -8.02,-4.66 -15.01,-10.22 -20.96,-16.69 -5.95,-6.47 -10.6,-14.23 -13.97,-23.28 -3.36,-9.06 -4.78,-19.79 -4.27,-32.21 1.04,-16.04 4.92,-29.75 11.65,-41.14 2.07,-17.59 11.64,-34.27 28.71,-50.05 17.08,-15.79 37.77,-29.5 62.09,-41.14 24.32,-11.64 50.71,-20.95 79.16,-27.94 28.46,-6.98 55.37,-10.48 80.72,-10.48 13.97,0 24.83,1.69 32.6,5.05 7.76,3.36 13.58,7.5 17.46,12.42 3.88,4.91 6.34,10.47 7.37,16.68 1.04,6.21 1.3,12.16 0.78,17.85 -0.52,12.42 -6.6,24.45 -18.24,36.09 -11.64,11.64 -28.33,20.31 -50.06,26 -21.21,3.62 -36.22,6.6 -45.01,8.93 -8.8,2.33 -14.75,4.27 -17.85,5.82 -3.11,1.55 -5.31,2.97 -6.6,4.27 -1.3,1.29 -5.05,2.97 -11.26,5.04 10.87,8.8 21.35,18.11 31.44,27.94 10.09,9.83 19.01,20.18 26.77,31.05 7.76,10.86 13.71,22.63 17.85,35.31 4.14,12.68 5.95,26 5.44,39.97 -1.04,10.86 -3.11,22.12 -6.21,33.76 -3.11,11.64 -8.28,24.19 -15.52,37.64 -0.52,5.18 -2.72,10.48 -6.6,15.91 -3.88,5.43 -8.67,10.87 -14.36,16.3 -5.69,5.43 -11.9,10.48 -18.63,15.13 -6.72,4.66 -12.93,8.8 -18.62,12.42l-12.42 7.76z"/>
  <path id="3" class="fil2" d="M4511.95 5207.07c-4.14,8.28 -7.63,15.13 -10.48,20.57 -2.84,5.43 -5.43,10.09 -7.76,13.97 -2.33,3.88 -4.79,7.63 -7.37,11.25 -2.59,3.62 -5.44,7.76 -8.54,12.42l-55.1 82.27c-2.59,2.58 -4.79,5.04 -6.6,7.37 -1.81,2.33 -3.75,4.27 -5.82,5.82l-13.97 13.19c7.76,-1.55 14.36,-2.84 19.79,-3.88 5.43,-1.03 10.35,-1.94 14.75,-2.71 4.39,-0.78 8.53,-1.43 12.41,-1.94 3.88,-0.52 8.67,-1.04 14.36,-1.55 4.66,1.03 10.48,1.68 17.46,1.94 6.99,0.25 13.59,1.03 19.79,2.32 6.21,1.3 11.39,3.75 15.53,7.38 4.14,3.62 5.95,9.31 5.43,17.07 -1.04,10.35 -5.56,20.96 -13.58,31.82 -8.02,10.87 -18.5,16.82 -31.44,17.85l-19.4 4.66c-15,3.62 -28.97,6.98 -41.91,10.09 -12.93,3.1 -26.64,4.91 -41.13,5.43l-6.21 5.43c-7.76,12.94 -16.69,29.24 -26.78,48.9 -10.09,19.66 -20.82,40.87 -32.2,63.64 -11.39,22.77 -23.29,46.31 -35.71,70.63 -12.41,24.31 -24.57,47.6 -36.47,69.85 -11.9,22.24 -23.29,42.68 -34.15,61.31 -10.87,18.62 -20.7,33.37 -29.49,44.24 -5.7,7.76 -11,12.03 -15.91,12.8 -4.92,0.78 -11.52,2.98 -19.8,6.6 -6.72,-0.52 -13.71,-1.68 -20.95,-3.49 -7.24,-1.81 -13.97,-4.27 -20.18,-7.38 -6.21,-3.1 -11.12,-6.59 -14.75,-10.47 -3.62,-3.88 -5.43,-8.41 -5.43,-13.59 0.52,-2.58 0.91,-4.52 1.17,-5.82 0.26,-1.29 0.9,-3.23 1.94,-5.82 5.17,-18.62 12.16,-39.97 20.95,-64.03 8.8,-24.06 18.5,-49.41 29.11,-76.06 10.6,-26.64 21.99,-54.06 34.14,-82.26 12.16,-28.2 24.19,-55.49 36.09,-81.88 -11.38,0 -19.53,0.52 -24.44,1.55 -4.92,1.03 -8.67,2.07 -11.26,3.1 -2.58,1.04 -5.3,2.07 -8.15,3.11 -2.84,1.03 -7.63,1.81 -14.35,2.33 -7.77,-1.04 -14.1,-4.66 -19.02,-10.87 -4.91,-6.21 -7.11,-13.97 -6.6,-23.28 0.52,-8.28 3.75,-16.82 9.71,-25.61 5.95,-8.8 16.42,-16.3 31.43,-22.51l-0.78 0c16.56,-4.14 28.2,-7.37 34.93,-9.7 6.72,-2.33 12.03,-4.27 15.91,-5.82 3.88,-1.56 8.15,-3.24 12.8,-5.05 4.66,-1.81 13.46,-4.27 26.39,-7.37l11.64 -3.1c1.04,-1.04 2.46,-1.69 4.27,-1.95 1.81,-0.25 5.3,-0.38 10.48,-0.38l10.09 -24.84c6.21,-15 12.67,-30.4 19.4,-46.18 6.73,-15.78 14.23,-31.43 22.51,-46.95 8.28,-15.52 17.2,-30.53 26.77,-45.02 9.58,-14.48 20.05,-27.94 31.44,-40.35 6.2,-9.32 10.99,-15.53 14.35,-18.63 3.37,-3.11 6.99,-5.3 10.87,-6.6 3.88,-1.29 8.67,-2.71 14.36,-4.27 5.69,-1.55 13.97,-5.43 24.83,-11.64 5.18,-6.72 11.9,-10.09 20.18,-10.09 6.21,0 12.68,1.43 19.4,4.27 6.73,2.85 12.81,6.73 18.24,11.64 5.44,4.92 9.83,10.74 13.2,17.47 3.36,6.72 4.78,13.97 4.27,21.73 0,3.62 -0.39,6.98 -1.17,10.09 -0.77,3.1 -1.68,5.43 -2.72,6.98l-0.77 0z"/>
  <path id="4" class="fil2" d="M4497.98 5775.18c-8.27,17.08 -20.56,29.75 -36.86,38.03 -16.3,8.28 -31.95,12.42 -46.96,12.42 -13.97,0 -26,-3.36 -36.09,-10.09 -10.08,-6.73 -14.61,-16.81 -13.58,-30.27 0,-3.1 0.65,-6.59 1.94,-10.47 1.3,-3.89 2.98,-8.15 5.05,-12.81 4.65,-11.38 11.64,-27.29 20.95,-47.73 9.32,-20.44 19.92,-43.08 31.82,-67.91 11.9,-24.84 24.58,-50.97 38.03,-78.39 13.46,-27.42 26.39,-54.33 38.81,-80.71 12.42,-26.39 23.93,-50.97 34.54,-73.73 10.6,-22.77 19.01,-41.91 25.22,-57.44 12.93,-25.35 23.8,-45.92 32.6,-61.7 8.79,-15.78 16.68,-28.45 23.67,-38.03 6.98,-9.57 13.58,-16.94 19.79,-22.12 6.21,-5.17 13.19,-9.83 20.95,-13.97 22.25,-11.38 41.78,-18.49 58.6,-21.34 16.81,-2.84 34.28,-4.78 52.39,-5.82 7.76,-0.52 16.81,-1.55 27.16,-3.1 10.35,-1.56 20.7,-3.24 31.04,-5.05 10.35,-1.81 20.57,-3.36 30.66,-4.65 10.09,-1.3 18.76,-1.95 26,-1.95 17.07,0 29.49,4.27 37.25,12.81 7.76,8.54 11.13,18.76 10.09,30.66 -0.51,11.9 -4.27,24.83 -11.25,38.8 -6.99,13.97 -16.17,27.55 -27.55,40.75 -11.39,13.19 -24.58,25.35 -39.58,36.48 -15.01,11.12 -30.79,19.53 -47.35,25.22l0.78 0c-11.9,3.62 -21.47,6.08 -28.72,7.37 -7.24,1.3 -13.19,1.94 -17.85,1.94 -5.17,0 -8.92,-0.52 -11.25,-1.55 -2.33,-1.03 -4.14,-2.07 -5.43,-3.1 -1.3,-1.04 -2.07,-2.07 -2.33,-3.11 -0.26,-1.03 -1.17,-1.55 -2.72,-1.55 -1.55,0 -3.36,1.29 -5.43,3.88 -2.07,2.59 -4.27,5.69 -6.6,9.31 -2.33,3.62 -4.65,7.38 -6.98,11.26 -2.33,3.88 -4.01,6.85 -5.05,8.92 -15,26.91 -29.23,47.22 -42.68,60.93 -13.46,13.71 -22.51,22.63 -27.17,26.77l80.72 -6.21 3.88 0c11.9,0 20.82,3.63 26.77,10.87 5.95,7.24 8.67,15.26 8.15,24.06 -1.03,11.38 -6.72,19.4 -17.07,24.06 -9.31,4.14 -15.65,8.15 -19.02,12.03 -3.36,3.88 -5.95,7.76 -7.76,11.64 -1.81,3.88 -3.88,7.63 -6.21,11.25 -2.32,3.62 -7.63,7.12 -15.91,10.48 -8.27,3.36 -20.69,6.6 -37.25,9.7 -16.56,3.11 -39.32,5.95 -68.3,8.54l-29.49 54.33c-7.76,12.93 -15.65,25.74 -23.67,38.41 -8.02,12.68 -14.1,23.42 -18.24,32.21 -1.03,1.04 -2.2,3.24 -3.49,6.6 -1.3,3.36 -2.85,7.5 -4.66,12.42 -1.81,4.91 -3.88,10.09 -6.21,15.52 -2.33,5.43 -4.78,10.22 -7.37,14.36l-0.78 0.77z"/>
  <path id="5" class="fil2" d="M4893.8 5443.01c7.24,-12.42 19.14,-21.73 35.7,-27.94 16.56,-6.21 32.6,-9.32 48.12,-9.32 15.52,0 28.97,2.85 40.36,8.54 11.38,5.69 16.55,14.49 15.52,26.39 0,3.1 -0.26,5.69 -0.78,7.76l0 -0.78c-9.31,18.11 -20.69,40.36 -34.15,66.75 -13.45,26.39 -27.03,53.68 -40.74,81.88 -13.71,28.2 -26.52,55.75 -38.42,82.66 -11.9,26.9 -21.21,50.44 -27.94,70.62 -7.24,18.63 -13.97,32.99 -20.18,43.08 -6.21,10.09 -12.16,17.59 -17.85,22.5 -5.69,4.92 -10.99,7.89 -15.91,8.93 -4.92,1.03 -9.7,1.68 -14.36,1.94 -4.65,0.26 -9.18,0.9 -13.58,1.94 -4.4,1.03 -8.41,4.14 -12.03,9.31 -3.1,5.18 -8.02,9.06 -14.75,11.64 -6.72,2.59 -13.71,3.88 -20.95,3.88 -6.21,0 -12.42,-1.03 -18.63,-3.1 -6.21,-2.07 -11.64,-5.04 -16.3,-8.93 -4.65,-3.88 -8.4,-8.92 -11.25,-15.13 -2.84,-6.21 -4.01,-13.71 -3.49,-22.51 0.52,-10.86 4.4,-24.06 11.64,-39.58 4.66,-16.04 13.19,-38.29 25.61,-66.74 12.42,-28.46 26.78,-58.47 43.08,-90.03 16.29,-31.56 33.37,-62.09 51.22,-91.58 17.85,-29.5 34.54,-53.3 50.06,-71.41l0 -0.77zm229.73 -184.72c-0.52,8.8 -3.63,16.95 -9.32,24.45 -5.69,7.5 -12.54,13.97 -20.56,19.4 -8.02,5.44 -16.82,9.84 -26.39,13.2 -9.57,3.36 -18.76,5.04 -27.55,5.04 -19.66,0 -34.15,-3.36 -43.47,-10.09 -9.31,-6.72 -13.71,-15.26 -13.19,-25.61 0.52,-10.35 6.99,-21.34 19.4,-32.98 12.42,-11.64 31.05,-20.83 55.88,-27.55 4.14,-0.52 7.64,-0.91 10.48,-1.17 2.85,-0.26 5.56,-0.39 8.15,-0.39 10.87,0 19.4,1.3 25.61,3.88 6.21,2.59 10.87,5.7 13.97,9.32 3.11,3.62 5.05,7.5 5.82,11.64 0.78,4.14 1.17,7.76 1.17,10.86z"/>
  <path id="6" class="fil2" d="M5128.18 5478.71c11.9,-14.49 20.44,-24.19 25.61,-29.1 5.18,-4.92 9.32,-7.38 12.42,-7.38 1.55,0 4.14,1.3 7.76,3.88 11.38,-4.14 20.7,-6.98 27.94,-8.53 7.25,-1.56 13.45,-2.33 18.63,-2.33 11.38,0 18.37,3.88 20.95,11.64 2.59,7.76 3.62,15.26 3.11,22.51 0,5.69 -0.52,10.6 -1.55,14.74 10.86,-9.83 24.96,-19.4 42.29,-28.71 17.34,-9.32 36.09,-17.6 56.27,-24.84 20.18,-7.24 40.75,-13.19 61.7,-17.85 20.96,-4.66 39.97,-6.99 57.05,-6.99 31.04,0 52.9,7.12 65.58,21.35 12.67,14.23 18.24,33.76 16.68,58.59 -1.03,21.74 -6.59,45.92 -16.68,72.57 -10.09,26.65 -22.9,54.2 -38.42,82.66l0 -0.78c-5.69,8.8 -10.74,16.95 -15.13,24.45 -4.4,7.5 -8.41,14.1 -12.03,19.79 -5.7,9.31 -13.59,20.95 -23.68,34.92 -10.08,13.97 -21.86,27.56 -35.31,40.75 -13.45,13.19 -28.84,24.45 -46.18,33.76 -17.33,9.31 -36.09,13.97 -56.26,13.97 -10.87,0 -20.05,-1.81 -27.56,-5.43 -7.5,-3.62 -10.99,-9.06 -10.47,-16.3 0,-1.55 0.51,-3.36 1.55,-5.43 1.03,-2.07 2.07,-4.4 3.1,-6.99l45.02 -83.04c16.55,-30.53 29.75,-55.24 39.58,-74.12 9.83,-18.89 15.26,-33.76 16.3,-44.63 0,-10.35 -4.14,-15.52 -12.42,-15.52 -10.35,0 -22.9,6.73 -37.64,20.18 -14.75,13.45 -30.66,30.53 -47.73,51.22 -17.08,20.7 -34.93,43.72 -53.55,69.08 -18.63,25.35 -37,49.67 -55.11,72.95 -6.21,8.28 -11.25,13.45 -15.13,15.52 -3.88,2.07 -7.12,3.5 -9.7,4.27 -2.59,0.78 -4.79,1.81 -6.6,3.11 -1.81,1.29 -4.01,5.04 -6.6,11.25 -1.55,4.66 -5.04,8.8 -10.48,12.42 -5.43,3.62 -12.03,6.72 -19.79,9.31 -7.76,2.59 -16.17,4.53 -25.22,5.82 -9.05,1.29 -18.24,1.94 -27.55,1.94 -4.14,0 -10.22,-0.39 -18.24,-1.16 -8.02,-0.78 -16.04,-2.33 -24.06,-4.66 -8.02,-2.33 -14.88,-5.69 -20.57,-10.09 -5.69,-4.4 -8.28,-9.96 -7.76,-16.69 0.52,-10.34 4.4,-24.96 11.64,-43.85 7.25,-18.88 16.43,-39.71 27.56,-62.47 11.12,-22.77 23.15,-46.18 36.08,-70.24 12.94,-24.06 25.23,-46.31 36.87,-66.75 11.64,-20.43 21.86,-37.77 30.66,-51.99 8.79,-14.23 14.48,-23.16 17.07,-26.78z"/>
  <path id="7" class="fil2" d="M5714.92 5463.19c7.24,-4.14 15.13,-7.25 23.67,-9.32 8.53,-2.07 16.94,-3.1 25.22,-3.1 13.97,0 26.26,4.01 36.87,12.03 10.6,8.02 15.65,19.01 15.13,32.98 6.21,-11.38 10.74,-19.79 13.58,-25.22 2.85,-5.43 4.92,-9.44 6.21,-12.03 1.29,-2.59 2.2,-4.79 2.72,-6.6 0.51,-1.81 1.55,-4.78 3.1,-8.92l26.39 -58.21c6.21,-13.97 14.49,-31.3 24.83,-52 10.35,-20.7 21.61,-41.52 33.77,-62.48 12.15,-20.95 24.31,-40.35 36.47,-58.2 12.16,-17.85 23.16,-30.92 32.99,-39.2 7.24,-4.14 14.87,-7.11 22.89,-8.92 8.02,-1.81 15.4,-2.72 22.12,-2.72 16.04,0 29.36,4.01 39.97,12.03 10.61,8.02 15.65,16.95 15.14,26.78 -0.52,2.58 -1.04,5.04 -1.56,7.37 -0.51,2.33 -0.77,4.78 -0.77,7.37 0,4.14 0.64,7.89 1.94,11.26 1.29,3.36 2.84,6.59 4.65,9.7 1.81,3.1 3.37,5.95 4.66,8.53 1.29,2.59 1.94,5.44 1.94,8.54 0,2.07 -0.52,4.14 -1.55,6.21 -20.18,45.53 -43.85,91.06 -71.02,136.6 -27.16,45.53 -54.06,90.15 -80.71,133.87 -26.65,43.73 -51.22,86.28 -73.73,127.67 -22.51,41.4 -39.19,80.98 -50.06,118.75 -1.55,7.24 -5.17,13.84 -10.87,19.79 -5.69,5.95 -12.54,11 -20.56,15.13 -8.02,4.14 -16.82,7.51 -26.39,10.09 -9.57,2.59 -19.27,3.88 -29.1,3.88 -4.66,0 -10.09,-0.64 -16.3,-1.94 -6.21,-1.29 -12.03,-2.84 -17.47,-4.65 -5.43,-1.81 -9.96,-3.62 -13.58,-5.44 -3.62,-1.81 -5.43,-3.23 -5.43,-4.26 -3.1,-2.07 -4.66,-4.92 -4.66,-8.54 0,-1.55 0.39,-5.43 1.17,-11.64 0.77,-6.21 1.42,-12.42 1.94,-18.63 -12.94,14.75 -24.84,25.48 -35.7,32.34 -10.87,6.85 -24.32,10.35 -40.36,10.35 -16.04,0 -31.05,-1.04 -45.02,-3.11 -13.97,-2.07 -26.12,-5.95 -36.47,-11.64 -10.35,-5.69 -18.37,-13.45 -24.06,-23.15 -5.69,-9.83 -8.02,-22.25 -6.99,-37.26 0.52,-14.48 5.95,-34.27 16.3,-59.63 10.35,-25.22 24.84,-51.61 43.46,-78.9 18.63,-27.42 41.01,-53.55 67.14,-78.26 26.13,-24.84 55.23,-43.59 87.31,-56.53l0.78 -0.77zm-54.33 260.77c4.65,2.07 9.83,3.1 15.52,3.1 10.35,0 18.63,-4.65 24.84,-13.97 6.2,-9.31 13.71,-22.5 22.5,-39.58l17.85 -34.15 5.44 -14.74c-7.77,-4.66 -15.27,-6.99 -22.51,-6.99 -8.8,0 -17.33,2.46 -25.61,7.38 -8.28,4.91 -15.65,11.25 -22.12,19.01 -6.47,7.76 -11.64,16.43 -15.52,26 -3.88,9.57 -6.08,18.76 -6.6,27.55 -1.04,8.8 0.52,17.08 4.66,24.84l1.55 1.55z"/>
  <path id="8" class="fil2" d="M6205.41 5668.08c-3.1,1.55 -9.7,3.49 -19.79,5.82 -10.09,2.33 -21.73,4.92 -34.92,7.76 -13.2,2.85 -26.78,5.43 -40.75,7.76 -13.97,2.33 -26.13,3.75 -36.47,4.27 0.51,9.83 4.26,16.95 11.25,21.34 6.98,4.4 13.06,6.6 18.24,6.6 7.24,0 15.13,-1.29 23.67,-3.88 8.54,-2.59 17.2,-5.43 26,-8.54 8.79,-3.1 17.46,-5.95 26,-8.53 8.54,-2.59 16.68,-3.88 24.45,-3.88 5.17,0 10.47,1.16 15.91,3.49 5.43,2.33 10.21,5.3 14.35,8.92 2.59,10.35 5.31,16.3 8.15,17.85 2.85,1.56 5.82,2.33 8.93,2.33 -0.52,0 -0.13,0.13 1.16,0.39 1.3,0.26 2.72,1.17 4.27,2.72 1.55,1.55 2.98,4.01 4.27,7.37 1.29,3.36 1.68,8.15 1.16,14.36 -0.51,10.86 -7.24,20.44 -20.17,28.71 -12.94,8.28 -29.11,15.4 -48.51,21.35 -19.4,5.95 -40.62,10.47 -63.64,13.58 -23.03,3.1 -44.89,4.66 -65.58,4.66 -25.36,0 -46.57,-2.33 -63.65,-6.99 -17.07,-4.66 -30.65,-11.38 -40.74,-20.18 -10.09,-8.79 -17.08,-19.27 -20.96,-31.43 -3.88,-12.16 -5.3,-26 -4.26,-41.52 1.03,-16.04 4.13,-32.6 9.31,-49.67 5.17,-17.08 11.9,-34.02 20.18,-50.84 8.28,-16.81 17.59,-33.11 27.94,-48.89 10.35,-15.78 21.47,-30.14 33.37,-43.08 15.52,-17.59 31.69,-34.15 48.51,-49.67 16.81,-15.52 34.92,-29.23 54.32,-41.13 19.41,-11.9 40.36,-21.35 62.87,-28.33 22.51,-6.99 47.47,-10.48 74.89,-10.48 10.87,0 21.35,1.17 31.44,3.49 10.09,2.33 19.01,6.34 26.77,12.03 7.76,5.7 13.71,13.33 17.85,22.9 4.14,9.57 5.95,21.86 5.44,36.86 -1.04,13.97 -4.4,31.05 -10.09,51.23l0 -0.78c-8.28,21.22 -16.3,38.94 -24.06,53.17 -7.76,14.22 -16.56,26.38 -26.39,36.47 -9.83,10.09 -21.21,19.15 -34.15,27.17 -12.93,8.02 -28.46,16.17 -46.57,24.44l0 0.78zm-5.43 -124.95c0.52,-2.59 -1.03,-4.4 -4.66,-5.44 -3.62,-1.03 -6.72,-1.55 -9.31,-1.55 -9.31,0 -18.24,2.59 -26.77,7.76 -8.54,5.18 -16.43,11.9 -23.68,20.18 -7.24,8.28 -13.97,17.59 -20.17,27.94 -6.21,10.35 -11.65,20.96 -16.3,31.82l3.1 0c10.35,0 21.22,-3.1 32.6,-9.31 11.38,-6.21 21.86,-13.58 31.43,-22.12 9.57,-8.54 17.59,-17.46 24.06,-26.78 6.47,-9.31 9.7,-16.81 9.7,-22.5z"/>
  <path id="9" class="fil2" d="M6449.89 5457.75c6.21,-10.34 13.07,-19.27 20.57,-26.77 7.5,-7.5 15.26,-13.71 23.28,-18.63 8.02,-4.91 15.91,-8.54 23.67,-10.86 7.77,-2.33 14.75,-3.5 20.96,-3.5 12.93,0 18.88,6.73 17.85,20.18 0,2.59 -0.52,5.44 -1.55,8.54 -1.04,3.1 -2.07,6.47 -3.11,10.09 7.76,-6.21 17.72,-12.68 29.88,-19.4 12.16,-6.73 24.84,-13.07 38.03,-19.02 13.2,-5.95 25.87,-10.73 38.03,-14.36 12.16,-3.62 22.12,-5.43 29.88,-5.43 8.8,0 13.2,3.36 13.2,10.09 0,4.66 -2.33,10.35 -6.99,17.07 12.94,2.59 18.89,11.13 17.85,25.62 -0.52,6.72 -2.59,13.84 -6.21,21.34 -3.62,7.5 -8.92,14.88 -15.91,22.12 -6.98,7.24 -15.52,13.97 -25.61,20.18 -10.09,6.21 -22.12,10.86 -36.09,13.97 -16.56,5.17 -32.72,15.65 -48.51,31.43 -15.78,15.78 -30.78,34.93 -45.01,57.43 -14.23,22.51 -27.55,47.34 -39.97,74.51 -12.42,27.16 -24.06,54.46 -34.92,81.88 -4.66,10.86 -11.65,20.95 -20.96,30.27 -9.31,9.31 -19.53,17.46 -30.66,24.44 -11.12,6.99 -22.76,12.42 -34.92,16.3 -12.16,3.88 -23.41,5.82 -33.76,5.82 -12.42,0 -22.51,-2.84 -30.27,-8.53 -7.76,-5.7 -11.12,-15.27 -10.09,-28.72 0.52,-7.24 2.85,-17.07 6.99,-29.49 4.14,-12.42 9.57,-26 16.29,-40.75 6.73,-14.74 14.1,-30.27 22.12,-46.56 8.02,-16.3 15.91,-32.08 23.67,-47.35 7.77,-15.26 15.01,-29.36 21.74,-42.3 6.72,-12.93 12.16,-23.54 16.29,-31.82l44.24 -97.79z"/>
  <polygon class="fil1" points="3065.4,4053.08 3295.6,4079.54 3216.22,4341.48 "/>
  <polygon class="fil1" points="3090.61,3823.48 3328.74,3906.98 3174.36,4147.39 "/>
  <polygon class="fil1" points="3144.91,3581.46 3368.12,3721.68 3179.95,3936.67 "/>
  <polygon class="fil1" points="3099.25,4280.66 3303.54,4275.34 3254.68,4549.18 "/>
  <polygon class="fil1" points="3226.93,3406.82 3435.57,3535.14 3261.96,3734.26 "/>
  <polygon class="fil1" points="3315.56,3224.26 3508.33,3385.65 3328.1,3543.76 "/>
  <polygon class="fil1" points="3118.89,4453.52 3352.29,4445.56 3274.43,4642.12 "/>
  <polygon class="fil1" points="3412.14,3076.09 3577.14,3213.66 3399.97,3331.04 "/>
  <polygon class="fil1" points="3503.42,3005.98 3623.44,3107.83 3488.56,3203.56 "/>
  <path class="fil1" d="M3563.43 3056.9l1.52 -82.8 -142.88 -5.29 -89.96 -116.42 18.52 111.12 -137.58 5.3 -76.73 -103.19 5.29 113.77 -174.63 37.04 -34.4 -95.25 -18.52 113.77 -179.92 60.86c80.26,-403.94 351.02,-485.08 732.91,-354.55l-66.14 -121.71 -31.75 -129.65 -15.88 82.03 -164.05 -113.78 -18.52 -111.12 -44.98 68.79 -97.89 -44.98 -214.32 -95.25c283.11,-168.46 710.43,38.8 841.39,367.77 322.84,-195.8 568.93,-79.4 730.37,142.84l-195.79 -5.29 -116.42 -100.54 21.17 100.54 -179.92 21.17 -58.21 -58.21 -10.58 79.38 -58.21 42.33c485.95,65.27 678.21,535.35 703.79,894.3l-174.62 -275.17 21.16 -79.38 -68.78 22.5 -277.81 -235.48 44.98 -71.44 -84.67 46.3 -87.32 -39.69c120.38,193.59 114.41,410.99 9.89,649.55l-91.95 -377.71 38.37 -57.55 -50.27 -10.58 -84.05 -204.41 42.33 -42.33 -46.97 -6.62 -30.43 -52.25 -87.54 31.28z"/>
  <ellipse class="fil1" cx="4767.64" cy="2557.39" rx="264.58" ry="248.71"/>
  <polygon class="fil1" points="3898.35,4069.1 4057.1,4066.45 3916.87,3830.97 4088.85,4063.8 4514.83,4071.74 4244.96,4357.49 4250.25,4587.68 4385.19,4630.02 4046.52,4632.66 4173.52,4587.68 4173.52,4352.2 "/>
 </g>
</svg>
