<?xml version="1.0" encoding="UTF-8"?>
<!DOCTYPE svg PUBLIC "-//W3C//DTD SVG 1.1//EN" "http://www.w3.org/Graphics/SVG/1.1/DTD/svg11.dtd">
<!-- Creator: CorelDRAW 2020 (64-Bit) -->
<svg xmlns="http://www.w3.org/2000/svg" xml:space="preserve" width="300px" height="130px" version="1.1" style="shape-rendering:geometricPrecision; text-rendering:geometricPrecision; image-rendering:optimizeQuality; fill-rule:evenodd; clip-rule:evenodd"
viewBox="0 0 300 130"
 xmlns:xlink="http://www.w3.org/1999/xlink"
 xmlns:xodm="http://www.corel.com/coreldraw/odm/2003">
 <defs>
  <style type="text/css">
   <![CDATA[
    .str0 {stroke:#C3021B;stroke-width:4;stroke-miterlimit:22.9256}
    .str1 {stroke:#C3021B;stroke-miterlimit:22.9256}
    .fil0 {fill:none}
    .fil1 {fill:#C3021B;fill-rule:nonzero}
   ]]>
  </style>
 </defs>
 <g id="Слой_x0020_1">
  <metadata id="CorelCorpID_0Corel-Layer"/>
  <line class="fil0 str0" x1="13" y1="84.01" x2="277" y2= "13" />
  <line class="fil0 str0" x1="23.9" y1="124.01" x2="287.9" y2= "53" />
  <line class="fil0 str1" x1="28.5" y1="118.5" x2="282.3" y2= "50.08" />
  <line class="fil0 str1" x1="20.5" y1="86.5" x2="274.5" y2= "17.5" />
  <path class="fil1" d="M56.58 108.15l-7.04 1.88c-0.17,-0.38 -0.38,-0.74 -0.67,-1.09l-8.5 -10.28 3.2 11.9c0.1,0.37 0.21,0.71 0.32,1.03l-6.48 1.73c-0.04,-0.36 -0.11,-0.73 -0.21,-1.09l-6.59 -24.5c-0.09,-0.34 -0.22,-0.7 -0.38,-1.09l8.38 -2.24c3.08,-0.83 5.66,-0.74 7.72,0.27 2.07,1.03 3.45,2.85 4.16,5.46 0.9,3.38 -0.05,6.21 -2.86,8.49l8.95 9.53zm-12.92 -16.35c-0.35,-1.31 -1,-2.12 -1.95,-2.44 -0.9,-0.32 -2.16,-0.27 -3.81,0.14l1.97 7.32c1.8,-0.54 2.98,-1.15 3.54,-1.82 0.56,-0.68 0.64,-1.74 0.25,-3.2z"/>
  <path id="1" class="fil1" d="M77.55 102.57l-17.67 4.73c-0.06,-0.44 -0.13,-0.81 -0.22,-1.13l-6.65 -24.72c-0.09,-0.34 -0.2,-0.68 -0.32,-1.02l17.55 -4.7 1.22 4.54c-0.66,0.1 -1.26,0.22 -1.8,0.37l-9.6 2.57 1.68 6.24 10.29 -2.76 1.25 4.62 -10.29 2.76 1.91 7.09 9.46 -2.53c0.52,-0.14 1.18,-0.34 1.97,-0.61l1.22 4.55z"/>
  <path id="2" class="fil1" d="M98.57 90.28c0.61,2.27 0.22,4.31 -1.17,6.14 -1.4,1.82 -3.43,3.09 -6.12,3.81 -5.7,1.53 -9.41,-0.62 -11.13,-6.44l6.78 -1.82c0.04,0.36 0.1,0.73 0.2,1.09 0.2,0.74 0.54,1.37 1.02,1.87 0.6,0.66 1.29,0.88 2.08,0.67 1.69,-0.45 2.3,-1.62 1.79,-3.49 -0.43,-1.62 -2.11,-2.99 -5.04,-4.12 -3.64,-1.45 -5.58,-2.23 -5.83,-2.35 -2.04,-1.04 -3.28,-2.36 -3.71,-3.96 -0.58,-2.17 -0.29,-4.13 0.88,-5.9 1.14,-1.73 2.97,-2.93 5.51,-3.61 5.33,-1.43 8.91,0.25 10.76,5.03l-6.53 1.75c0.01,-0.1 -0.01,-0.21 -0.03,-0.3 -0.17,-0.65 -0.47,-1.17 -0.89,-1.59 -0.52,-0.52 -1.13,-0.68 -1.85,-0.49 -1.38,0.37 -1.9,1.22 -1.54,2.55 0.31,1.13 1.28,2.03 2.91,2.71 0.17,0.05 1.62,0.58 4.36,1.56 4.21,1.53 6.73,3.83 7.55,6.89z"/>
  <path id="3" class="fil1" d="M121.8 90.71l-17.67 4.73c-0.06,-0.43 -0.13,-0.81 -0.22,-1.13l-6.65 -24.71c-0.09,-0.35 -0.19,-0.69 -0.32,-1.03l17.55 -4.7 1.22 4.55c-0.65,0.09 -1.25,0.21 -1.8,0.36l-9.59 2.57 1.68 6.24 10.28 -2.75 1.25 4.62 -10.29 2.75 1.91 7.1 9.47 -2.54c0.51,-0.14 1.17,-0.34 1.96,-0.61l1.22 4.55z"/>
  <path id="4" class="fil1" d="M145.08 84.43l-7.04 1.89c-0.17,-0.38 -0.38,-0.75 -0.66,-1.1l-8.51 -10.27 3.2 11.9c0.1,0.36 0.21,0.71 0.32,1.02l-6.48 1.74c-0.04,-0.36 -0.11,-0.73 -0.21,-1.09l-6.59 -24.5c-0.09,-0.35 -0.22,-0.71 -0.37,-1.09l8.37 -2.24c3.08,-0.83 5.66,-0.74 7.72,0.27 2.07,1.02 3.46,2.84 4.16,5.46 0.91,3.37 -0.05,6.2 -2.86,8.49l8.95 9.52zm-12.92 -16.34c-0.35,-1.31 -1,-2.12 -1.95,-2.45 -0.89,-0.31 -2.16,-0.26 -3.8,0.15l1.96 7.31c1.8,-0.53 2.99,-1.14 3.54,-1.82 0.56,-0.67 0.65,-1.74 0.25,-3.19z"/>
  <path id="5" class="fil1" d="M160.81 51.78l-0.71 28.71 -5.57 1.49 -14.98 -24.51 6.69 -1.79c0.11,0.29 0.3,0.67 0.55,1.16l7.84 14.34 -0.37 -16.34c-0.01,-0.53 -0.04,-0.95 -0.1,-1.28l6.65 -1.78z"/>
  <path id="6" class="fil1" d="M189.94 72.41l-6.52 1.75c-0.12,-0.32 -0.3,-0.7 -0.55,-1.17l-1.77 -3.32 -5.53 1.48 0.09 3.78c0.01,0.53 0.05,0.95 0.11,1.28l-6.52 1.75 0.16 -28.65 6.01 -1.61 14.52 24.71zm-11.01 -6.99l-3.7 -6.54 0.03 7.52 3.67 -0.98z"/>
  <path id="7" class="fil1" d="M205.42 44.85c-0.77,0.16 -1.48,0.32 -2.14,0.5l-4.23 1.13 5.61 20.88c0.09,0.32 0.2,0.65 0.36,1.01l-6.65 1.78c-0.03,-0.36 -0.1,-0.72 -0.19,-1.06l-5.62 -20.87 -4.32 1.16c-0.55,0.14 -1.19,0.34 -1.92,0.59l-1.29 -4.76 19.1 -5.12 1.29 4.76z"/>
  <path id="8" class="fil1" d="M227.29 62.44l-6.66 1.79c-0.03,-0.34 -0.09,-0.68 -0.18,-1.03l-6.6 -24.53c-0.1,-0.37 -0.22,-0.7 -0.36,-1.01l6.66 -1.78c0.02,0.34 0.08,0.68 0.18,1.06l6.6 24.53c0.09,0.32 0.21,0.64 0.36,0.97z"/>
  <path id="9" class="fil1" d="M251.45 41.71c1.15,4.26 1.59,7.44 1.32,9.55 -0.44,3.63 -2.65,5.97 -6.63,7.04 -3.97,1.06 -7.06,0.14 -9.27,-2.78 -1.28,-1.69 -2.5,-4.67 -3.65,-8.93 -1.14,-4.24 -1.57,-7.43 -1.29,-9.59 0.44,-3.66 2.63,-6.02 6.58,-7.08 3.94,-1.05 7.03,-0.11 9.24,2.84 1.33,1.73 2.56,4.71 3.7,8.95zm-6.65 1.78c-0.98,-3.62 -1.64,-5.84 -1.98,-6.68 -0.77,-1.83 -1.79,-2.57 -3.06,-2.23 -1.27,0.34 -1.77,1.49 -1.52,3.46 0.12,0.9 0.66,3.15 1.63,6.77 0.96,3.57 1.61,5.76 1.96,6.57 0.75,1.78 1.76,2.5 3.03,2.16 1.27,-0.34 1.79,-1.47 1.55,-3.39 -0.12,-0.87 -0.65,-3.09 -1.61,-6.66z"/>
  <path id="10" class="fil1" d="M269.93 22.54c0.04,0.38 0.11,0.76 0.21,1.13l6.86 25.49 -5.49 1.48 -10.01 -11.9 3.38 12.56c0.1,0.37 0.21,0.71 0.32,1.03l-5.92 1.58c-0.03,-0.36 -0.1,-0.71 -0.2,-1.06l-6.87 -25.56 5.79 -1.55 9.71 11.97 -3.38 -12.56c-0.09,-0.32 -0.21,-0.66 -0.37,-1.01l5.97 -1.6z"/>
 </g>
</svg>
