<?xml version="1.0" encoding="UTF-8"?>
<!DOCTYPE svg PUBLIC "-//W3C//DTD SVG 1.1//EN" "http://www.w3.org/Graphics/SVG/1.1/DTD/svg11.dtd">
<!-- Creator: CorelDRAW 2020 (64-Bit) -->
<svg xmlns="http://www.w3.org/2000/svg" xml:space="preserve" width="1920px" height="1080px" version="1.1" style="shape-rendering:geometricPrecision; text-rendering:geometricPrecision; image-rendering:optimizeQuality; fill-rule:evenodd; clip-rule:evenodd"
viewBox="0 0 1920 1080"
 xmlns:xlink="http://www.w3.org/1999/xlink"
 xmlns:xodm="http://www.corel.com/coreldraw/odm/2003">
 <defs>
  <style type="text/css">
   <![CDATA[
    .str0 {stroke:#2B2A29;stroke-width:0.756;stroke-miterlimit:22.9256;stroke-opacity:0.901961}
    .str1 {stroke:#17202B;stroke-width:3.84;stroke-miterlimit:22.9256}
    .str2 {stroke:#2B2A29;stroke-width:0.756;stroke-miterlimit:22.9256}
    .fil2 {fill:#17202B}
    .fil3 {fill:#2B2A29;fill-rule:nonzero}
    .fil1 {fill:url(#id0)}
    .fil0 {fill:url(#id1);fill-opacity:0.901961}
   ]]>
  </style>
  <linearGradient id="id0" gradientUnits="userSpaceOnUse" x1="879.509" y1="509.586" x2="1122.487" y2="223.446">
   <stop offset="0" style="stop-opacity:1; stop-color:#A74993"/>
   <stop offset="0.419608" style="stop-opacity:1; stop-color:#F08887"/>
   <stop offset="1" style="stop-opacity:1; stop-color:#F9B854"/>
  </linearGradient>
  <linearGradient id="id1" gradientUnits="userSpaceOnUse" x1="1288.329" y1="425.002" x2="208.842" y2="917.974">
   <stop offset="0" style="stop-opacity:1; stop-color:#D9DADA"/>
   <stop offset="1" style="stop-opacity:1; stop-color:#FEFEFE"/>
  </linearGradient>
 </defs>
 <g id="Слой_x0020_1">
  <metadata id="CorelCorpID_0Corel-Layer"/>
  <polygon class="fil0 str0" points="-3.5,-4.5 1920.5,-4.5 1920.5,1085.5 -3.5,1085.5 "/>
  <g id="fest_finder_logo_2.cdr">
   <path class="fil1 str1" d="M864.415 250.537c69.106,-77.31 186.279,-88.055 261.71,-24.003 75.432,64.054 80.561,178.652 11.455,255.961 -69.106,77.309 -186.278,88.056 -261.709,24.002 -75.433,-64.053 -80.561,-178.651 -11.456,-255.96z"/>
   <path class="fil2 str2" d="M931.956 550.05l-141.011 245.539c-22.106,38.493 -84.184,5.684 -60.957,-34.893l140.913 -246.172c-1.544,2.697 28.604,25.381 51.734,32.794 2.607,0.835 6.355,2.449 9.321,2.732z"/>
   <polygon class="fil2" points="898.194,468.861 926.277,472.089 916.593,504.045 "/>
   <polygon class="fil2" points="901.269,440.85 930.32,451.037 911.486,480.366 "/>
   <polygon class="fil2" points="907.894,411.325 935.124,428.432 912.168,454.66 "/>
   <polygon class="fil2" points="902.323,496.625 927.245,495.976 921.285,529.383 "/>
   <polygon class="fil2" points="917.899,390.02 943.353,405.674 922.173,429.966 "/>
   <polygon class="fil2" points="928.713,367.748 952.229,387.438 930.242,406.726 "/>
   <polygon class="fil2" points="907.699,514.715 936.173,513.743 926.674,537.724 "/>
   <polygon class="fil2" points="940.495,349.672 960.624,366.455 939.01,380.775 "/>
   <polygon class="fil2" points="951.63,341.119 966.272,353.544 949.818,365.223 "/>
   <path class="fil2" d="M958.951 347.331l0.186 -10.101 -17.431 -0.646 -10.975 -14.202 2.26 13.556 -16.785 0.646 -9.361 -12.588 0.646 13.879 -21.304 4.519 -4.197 -11.62 -2.259 13.879 -21.95 7.425c9.792,-49.279 42.823,-59.178 89.412,-43.254l-8.068 -14.848 -3.874 -15.817 -1.937 10.008 -20.013 -13.881 -2.26 -13.556 -5.487 8.392 -11.943 -5.487 -26.146 -11.621c34.539,-20.551 86.67,4.734 102.646,44.867 39.386,-23.887 69.408,-9.687 89.103,17.426l-23.886 -0.645 -14.203 -12.266 2.583 12.266 -21.949 2.582 -7.102 -7.101 -1.291 9.684 -7.101 5.164c59.284,7.962 82.739,65.31 85.86,109.101l-21.303 -33.57 2.581 -9.684 -8.391 2.745 -33.892 -28.727 5.488 -8.716 -10.33 5.649 -10.652 -4.842c14.686,23.617 13.957,50.138 1.206,79.242l-11.217 -46.079 4.681 -7.021 -6.133 -1.291 -10.254 -24.937 5.164 -5.164 -5.73 -0.807 -3.712 -6.375 -10.68 3.816z"/>
   <path class="fil2" d="M1105.86 256.051c17.826,0 32.278,13.585 32.278,30.342 0,16.757 -14.452,30.341 -32.278,30.341 -17.826,0 -32.278,-13.584 -32.278,-30.341 0,-16.757 14.452,-30.342 32.278,-30.342z"/>
   <polygon class="fil2" points="999.81,470.036 1018.657,469.721 1002.009,441.765 1022.427,469.407 1073,470.349 1040.961,504.274 1041.588,531.603 1057.609,536.629 1017.401,536.943 1032.479,531.603 1032.479,503.646 "/>
  </g>
  <path class="fil3" d="M899.184 669.192c0.64,-1.323 1.44,-2.763 2.4,-4.32 0.96,-1.557 2.016,-3.008 3.168,-4.352 1.152,-1.344 2.346,-2.453 3.584,-3.328 1.237,-0.875 2.453,-1.312 3.648,-1.312 0.981,0 1.877,0.32 2.688,0.96 0.298,1.451 0.555,2.752 0.768,3.904 0.213,1.152 0.373,2.251 0.48,3.296 0.106,1.045 0.171,2.048 0.192,3.008 0.021,0.96 0.01,1.973 -0.032,3.04 -0.043,0.64 -0.085,1.355 -0.128,2.144 -0.043,0.789 -0.107,1.611 -0.192,2.464l0.512 0.128c0.597,-1.024 1.269,-2.091 2.016,-3.2 0.746,-1.109 1.482,-2.229 2.208,-3.36 0.725,-1.131 1.429,-2.251 2.112,-3.36 0.683,-1.109 1.259,-2.176 1.728,-3.2 0.725,-1.323 1.621,-2.485 2.688,-3.488 1.067,-1.003 2.186,-1.835 3.36,-2.496 1.173,-0.661 2.346,-1.163 3.52,-1.504 1.173,-0.341 2.229,-0.512 3.168,-0.512 0.896,0 1.621,0.149 2.176,0.448 0.555,0.299 0.81,0.704 0.768,1.216 0,0.213 -0.054,0.416 -0.16,0.608 -0.107,0.192 -0.224,0.395 -0.352,0.608 -0.342,0.341 -0.523,0.789 -0.544,1.344 -0.021,0.555 -0.054,1.195 -0.096,1.92 -0.043,0.725 -0.192,1.547 -0.448,2.464 -0.256,0.917 -0.79,1.909 -1.6,2.976 -1.11,1.493 -2.326,3.381 -3.648,5.664 -1.323,2.283 -2.677,4.704 -4.064,7.264 -1.387,2.56 -2.763,5.131 -4.128,7.712 -1.366,2.581 -2.645,4.939 -3.84,7.072 -1.195,2.133 -2.272,3.925 -3.232,5.376 -0.96,1.451 -1.717,2.283 -2.272,2.496 -1.579,0.811 -2.805,1.376 -3.68,1.696 -0.875,0.32 -1.782,0.48 -2.72,0.48 -0.341,0.043 -0.704,0.043 -1.088,0 -0.384,-0.043 -0.811,-0.107 -1.28,-0.192 -0.598,-0.043 -1.035,-0.469 -1.312,-1.28 -0.278,-0.811 -0.459,-1.824 -0.544,-3.04 -0.086,-1.216 -0.107,-2.56 -0.064,-4.032 0.042,-1.472 0.085,-2.891 0.128,-4.256 0.042,-1.365 0.053,-2.613 0.032,-3.744 -0.022,-1.131 -0.118,-1.973 -0.288,-2.528 -1.451,2.901 -2.635,5.205 -3.552,6.912 -0.917,1.707 -1.685,3.072 -2.304,4.096 -0.619,1.024 -1.142,1.792 -1.568,2.304 -0.427,0.512 -0.832,0.981 -1.216,1.408l-1.088 1.216c-0.384,0.683 -0.885,1.28 -1.504,1.792 -0.619,0.512 -1.28,0.939 -1.984,1.28 -0.704,0.341 -1.429,0.597 -2.176,0.768 -0.747,0.171 -1.44,0.256 -2.08,0.256 -0.768,0 -1.408,-0.139 -1.92,-0.416 -0.512,-0.277 -0.747,-0.693 -0.704,-1.248 0,-0.384 0.149,-0.811 0.448,-1.28 0.512,-1.835 1.312,-4.149 2.4,-6.944 1.088,-2.795 2.304,-5.696 3.648,-8.704 1.344,-3.008 2.709,-5.952 4.096,-8.832 1.387,-2.88 2.656,-5.344 3.808,-7.392l0.064 0z"/>
  <path id="1" class="fil3" d="M941.36 674.056c0.64,-0.341 1.322,-0.512 2.048,-0.512 0.426,0 0.768,0.032 1.024,0.096 0.256,0.064 0.618,0.096 1.088,0.096 0.981,-1.408 2.016,-2.293 3.104,-2.656 1.088,-0.363 2.08,-0.544 2.976,-0.544 0.597,0 1.216,-0.043 1.856,-0.128 0.64,-0.085 1.216,-0.128 1.728,-0.128 1.749,0 3.232,0.235 4.447,0.704 1.217,0.469 2.198,1.109 2.945,1.92 0.746,0.811 1.269,1.792 1.567,2.944 0.299,1.152 0.406,2.389 0.321,3.712 -0.086,1.707 -0.438,3.552 -1.056,5.536 -0.619,1.984 -1.462,3.968 -2.529,5.952 -1.066,1.984 -2.346,3.904 -3.839,5.76 -1.494,1.856 -3.136,3.509 -4.928,4.96 -1.75,1.237 -3.531,2.069 -5.344,2.496 -1.814,0.427 -3.467,0.683 -4.96,0.768 -1.366,0 -2.827,-0.032 -4.384,-0.096 -1.557,-0.064 -2.976,-0.363 -4.256,-0.896 -1.28,-0.533 -2.326,-1.387 -3.136,-2.56 -0.811,-1.173 -1.152,-2.869 -1.024,-5.088 0.085,-1.92 0.523,-4.021 1.312,-6.304 0.789,-2.283 1.77,-4.48 2.944,-6.592 1.173,-2.112 2.474,-4.011 3.904,-5.696 1.429,-1.685 2.826,-2.933 4.192,-3.744zm8.64 12.544c-0.47,0.128 -0.928,0.235 -1.376,0.32 -0.448,0.085 -0.886,0.128 -1.312,0.128l-0.384 0c-0.342,0.384 -0.928,0.896 -1.76,1.536 -0.832,0.64 -1.686,1.387 -2.56,2.24 -0.875,0.853 -1.664,1.771 -2.368,2.752 -0.704,0.981 -1.078,2.005 -1.12,3.072 -0.043,0.811 0.17,1.237 0.64,1.28 0.469,0.043 1.066,0.064 1.792,0.064 1.45,0 2.72,-0.363 3.808,-1.088 1.088,-0.725 1.984,-1.643 2.688,-2.752 0.704,-1.109 1.248,-2.315 1.632,-3.616 0.384,-1.301 0.618,-2.507 0.704,-3.616l-0.384 -0.32z"/>
  <path id="2" class="fil3" d="M1002.352 673.544c0.597,-1.024 1.579,-1.792 2.944,-2.304 1.365,-0.512 2.688,-0.768 3.968,-0.768 1.28,0 2.389,0.235 3.328,0.704 0.939,0.469 1.365,1.195 1.28,2.176 0,0.256 -0.022,0.469 -0.064,0.64l0 -0.064c-0.768,1.493 -1.707,3.328 -2.816,5.504 -1.109,2.176 -2.23,4.427 -3.36,6.752 -1.131,2.325 -2.187,4.597 -3.168,6.816 -0.982,2.219 -1.75,4.16 -2.304,5.824 -0.598,1.536 -1.152,2.72 -1.664,3.552 -0.512,0.832 -1.003,1.451 -1.472,1.856 -0.469,0.405 -0.907,0.651 -1.312,0.736 -0.405,0.085 -0.8,0.139 -1.184,0.16 -0.384,0.021 -0.757,0.075 -1.12,0.16 -0.363,0.085 -0.693,0.341 -0.992,0.768 -0.256,0.427 -0.661,0.747 -1.216,0.96 -0.555,0.213 -1.131,0.32 -1.728,0.32 -0.512,0 -1.024,-0.085 -1.536,-0.256 -0.512,-0.171 -0.96,-0.416 -1.344,-0.736 -0.384,-0.32 -0.693,-0.736 -0.928,-1.248 -0.235,-0.512 -0.331,-1.131 -0.288,-1.856 0.043,-0.896 0.363,-1.984 0.96,-3.264 0.384,-1.323 1.088,-3.157 2.112,-5.504 1.024,-2.347 2.208,-4.821 3.552,-7.424 1.344,-2.603 2.752,-5.12 4.224,-7.552 1.472,-2.432 2.848,-4.395 4.128,-5.888l0 -0.064zm18.944 -15.232c-0.043,0.725 -0.299,1.397 -0.768,2.016 -0.469,0.619 -1.035,1.152 -1.696,1.6 -0.662,0.448 -1.387,0.811 -2.176,1.088 -0.79,0.277 -1.547,0.416 -2.272,0.416 -1.621,0 -2.816,-0.277 -3.584,-0.832 -0.768,-0.555 -1.131,-1.259 -1.088,-2.112 0.042,-0.853 0.576,-1.76 1.6,-2.72 1.024,-0.96 2.56,-1.717 4.608,-2.272 0.341,-0.043 0.629,-0.075 0.864,-0.096 0.234,-0.021 0.458,-0.032 0.672,-0.032 0.896,0 1.6,0.107 2.112,0.32 0.512,0.213 0.896,0.469 1.152,0.768 0.256,0.299 0.416,0.619 0.48,0.96 0.064,0.341 0.096,0.64 0.096,0.896z"/>
  <path id="3" class="fil3" d="M1023.984 673.352c0.256,-0.811 0.874,-1.44 1.856,-1.888 0.981,-0.448 2.048,-0.672 3.2,-0.672 1.066,0 2.069,0.299 3.008,0.896 0.938,0.597 1.493,1.579 1.664,2.944 1.536,-1.109 3.178,-2.08 4.928,-2.912 1.749,-0.832 3.306,-1.248 4.672,-1.248 1.621,0 2.858,0.725 3.712,2.176 1.28,-0.981 2.624,-1.856 4.032,-2.624 1.408,-0.768 2.858,-1.344 4.352,-1.728 1.066,0.043 2.208,0.213 3.424,0.512 1.216,0.299 2.144,0.747 2.784,1.344l-0.064 0c0.597,0.597 1.066,1.237 1.408,1.92 0.341,0.683 0.469,1.493 0.384,2.432 -0.043,1.067 -0.246,2.368 -0.608,3.904 -0.363,1.536 -0.822,3.168 -1.376,4.896 -0.555,1.728 -1.174,3.488 -1.856,5.28 -0.683,1.792 -1.376,3.499 -2.08,5.12 -0.704,1.621 -1.366,3.072 -1.984,4.352 -0.619,1.28 -1.163,2.283 -1.632,3.008 -0.342,0.427 -0.662,0.715 -0.96,0.864 -0.299,0.149 -0.598,0.224 -0.896,0.224 -0.256,0 -0.502,-0.043 -0.736,-0.128 -0.235,-0.085 -0.459,-0.128 -0.672,-0.128 -0.512,0 -0.875,0.341 -1.088,1.024 -0.47,0.512 -1.056,0.885 -1.76,1.12 -0.704,0.235 -1.44,0.352 -2.208,0.352 -0.64,0 -1.248,-0.085 -1.824,-0.256 -0.576,-0.171 -1.088,-0.416 -1.536,-0.736 -0.448,-0.32 -0.811,-0.715 -1.088,-1.184 -0.278,-0.469 -0.395,-1.003 -0.352,-1.6 0,-0.555 0.192,-1.152 0.576,-1.792 0.597,-1.365 1.322,-2.88 2.176,-4.544 0.853,-1.664 1.738,-3.36 2.656,-5.088 0.917,-1.728 1.834,-3.403 2.752,-5.024 0.917,-1.621 1.738,-3.072 2.464,-4.352l-0.512 -0.32c-0.64,0.64 -1.366,1.461 -2.176,2.464 -0.811,1.003 -1.622,2.048 -2.432,3.136 -0.811,1.088 -1.59,2.133 -2.336,3.136 -0.747,1.003 -1.376,1.803 -1.888,2.4l-0.832 1.088c-0.982,1.621 -2.059,2.923 -3.232,3.904 -1.174,0.981 -2.571,1.472 -4.192,1.472 -0.854,0 -1.536,-0.203 -2.048,-0.608 -0.512,-0.405 -0.875,-0.971 -1.088,-1.696l0 0.064c-0.043,-0.213 -0.086,-0.427 -0.128,-0.64 -0.043,-0.213 -0.043,-0.469 0,-0.768 0.042,-0.597 0.192,-1.419 0.448,-2.464 0.256,-1.045 0.725,-2.528 1.408,-4.448l-0.192 0.192c-1.494,0.981 -2.816,2.251 -3.968,3.808 -1.152,1.557 -2.454,3.573 -3.904,6.048l0 -0.064c-0.384,0.512 -0.811,1.28 -1.28,2.304 -0.47,1.024 -1.12,2.037 -1.952,3.04 -0.832,1.003 -1.931,1.888 -3.296,2.656 -1.366,0.768 -3.136,1.152 -5.312,1.152 -0.597,0 -1.184,-0.021 -1.76,-0.064 -0.576,-0.043 -1.088,-0.128 -1.536,-0.256 -0.448,-0.128 -0.811,-0.299 -1.088,-0.512 -0.278,-0.213 -0.416,-0.491 -0.416,-0.832 0,-0.085 0.042,-0.213 0.128,-0.384 0.554,-1.536 1.301,-3.296 2.24,-5.28 0.938,-1.984 1.941,-4.064 3.008,-6.24 1.066,-2.176 2.122,-4.352 3.168,-6.528 1.045,-2.176 1.952,-4.203 2.72,-6.08 0.469,-0.811 0.885,-1.589 1.248,-2.336 0.362,-0.747 0.704,-1.397 1.024,-1.952 0.32,-0.555 0.629,-0.992 0.928,-1.312 0.298,-0.32 0.618,-0.48 0.96,-0.48 0.085,0 0.256,0.043 0.512,0.128l0.448 -0.192z"/>
  <path id="4" class="fil3" d="M1088.88 670.408c0.384,0.085 0.874,0.192 1.472,0.32 0.597,0.128 1.162,0.299 1.696,0.512 0.533,0.213 0.981,0.501 1.344,0.864 0.363,0.363 0.522,0.8 0.48,1.312 0,0.427 0.213,0.64 0.64,0.64 0.213,-0.043 0.405,-0.075 0.576,-0.096 0.17,-0.021 0.299,-0.032 0.384,-0.032 0.426,0 0.768,0.139 1.024,0.416 0.256,0.277 0.448,0.619 0.576,1.024 0.128,0.405 0.202,0.853 0.224,1.344 0.021,0.491 0.032,0.949 0.032,1.376 -0.213,1.323 -0.619,2.987 -1.216,4.992 -0.598,2.005 -1.227,4.064 -1.888,6.176 -0.661,2.112 -1.323,4.139 -1.984,6.08 -0.662,1.941 -1.163,3.552 -1.504,4.832 -0.128,1.109 -0.758,1.931 -1.888,2.464 -1.131,0.533 -2.336,0.8 -3.616,0.8 -1.11,0 -2.102,-0.192 -2.976,-0.576 -0.875,-0.384 -1.269,-0.939 -1.184,-1.664l0.192 -0.64 -0.512 -0.32c-0.384,0.555 -0.96,1.077 -1.728,1.568 -0.768,0.491 -1.675,0.928 -2.72,1.312 -1.046,0.384 -2.198,0.683 -3.456,0.896 -1.259,0.213 -2.592,0.32 -4,0.32 -1.323,0 -2.528,-0.117 -3.616,-0.352 -1.088,-0.235 -2.016,-0.608 -2.784,-1.12 -0.768,-0.512 -1.344,-1.205 -1.728,-2.08 -0.384,-0.875 -0.533,-1.952 -0.448,-3.232 0.042,-0.853 0.192,-1.867 0.448,-3.04 0.256,-1.173 0.608,-2.389 1.056,-3.648 0.448,-1.259 0.981,-2.517 1.6,-3.776 0.618,-1.259 1.29,-2.443 2.016,-3.552 1.194,-1.536 2.72,-3.093 4.576,-4.672 1.856,-1.579 3.819,-2.997 5.888,-4.256 2.069,-1.259 4.138,-2.293 6.208,-3.104 2.069,-0.811 3.893,-1.216 5.472,-1.216 0.213,0 0.437,0.011 0.672,0.032 0.234,0.021 0.459,0.053 0.672,0.096zm-15.552 26.112c0.939,0 1.792,-0.32 2.56,-0.96 0.768,-0.64 1.461,-1.44 2.08,-2.4 0.619,-0.96 1.184,-1.984 1.696,-3.072 0.512,-1.088 0.981,-2.08 1.408,-2.976l0.96 -2.048c-1.451,0.555 -2.88,1.205 -4.288,1.952 -1.408,0.747 -2.667,1.515 -3.776,2.304 -1.11,0.79 -2.027,1.579 -2.752,2.368 -0.726,0.789 -1.131,1.504 -1.216,2.144 -0.043,0.597 0.245,1.195 0.864,1.792 0.619,0.597 1.44,0.896 2.464,0.896z"/>
  <path id="5" class="fil3" d="M1122.352 672.328c0.426,0.171 0.757,0.405 0.992,0.704 0.234,0.299 0.426,0.64 0.576,1.024 0.149,0.384 0.277,0.8 0.384,1.248 0.106,0.448 0.267,0.907 0.48,1.376 0.171,-0.256 0.448,-0.533 0.832,-0.832 0.384,-0.299 0.8,-0.587 1.248,-0.864 0.448,-0.277 0.917,-0.523 1.408,-0.736 0.49,-0.213 0.907,-0.32 1.248,-0.32 0.896,0.085 1.514,0.309 1.856,0.672 0.341,0.363 0.544,0.789 0.608,1.28 0.064,0.491 0.042,1.024 -0.064,1.6 -0.107,0.576 -0.16,1.141 -0.16,1.696 -0.128,1.877 -0.576,4.107 -1.344,6.688 -0.768,2.581 -1.686,5.163 -2.752,7.744 -1.067,2.581 -2.155,4.992 -3.264,7.232 -1.11,2.24 -2.07,3.979 -2.88,5.216l-1.28 1.92c-1.408,2.091 -2.944,3.989 -4.608,5.696 -1.664,1.707 -3.414,3.178 -5.248,4.416 -1.835,1.237 -3.744,2.197 -5.728,2.88 -1.984,0.682 -4.022,1.024 -6.112,1.024 -0.853,0 -1.75,-0.054 -2.688,-0.16 -0.939,-0.107 -1.877,-0.288 -2.816,-0.544l0.064 0.064 -0.512 -0.256c-0.299,-0.171 -0.661,-0.384 -1.088,-0.64 -0.427,-0.256 -0.832,-0.576 -1.216,-0.96 -0.384,-0.384 -0.704,-0.832 -0.96,-1.344 -0.256,-0.512 -0.363,-1.11 -0.32,-1.792 0.085,-0.981 0.459,-1.92 1.12,-2.816 0.661,-0.896 1.547,-1.344 2.656,-1.344 0.597,0 1.259,0.192 1.984,0.576 0.725,0.384 1.557,0.576 2.496,0.576 0.981,0 1.856,-0.15 2.624,-0.448 0.768,-0.299 1.579,-0.64 2.432,-1.024l1.344 -0.64c1.152,-0.555 2.24,-1.269 3.264,-2.144 1.024,-0.875 1.984,-1.824 2.88,-2.848 0.896,-1.024 1.707,-2.059 2.432,-3.104 0.725,-1.045 1.387,-2.016 1.984,-2.912l-0.512 -0.384c-1.237,1.195 -2.528,1.963 -3.872,2.304 -1.344,0.341 -2.763,0.512 -4.256,0.512 -0.384,0 -0.8,-0.011 -1.248,-0.032 -0.448,-0.021 -1.056,-0.032 -1.824,-0.032 -1.963,-0.085 -3.36,-0.885 -4.192,-2.4 -0.832,-1.515 -1.184,-3.381 -1.056,-5.6 0.128,-2.389 0.736,-4.917 1.824,-7.584 1.088,-2.667 2.528,-5.045 4.32,-7.136 2.389,-2.773 4.96,-4.821 7.712,-6.144 2.752,-1.323 5.344,-1.984 7.776,-1.984 0.64,0 1.248,0.043 1.824,0.128 0.576,0.085 1.12,0.235 1.632,0.448zm-4.16 16c0,-0.171 -0.086,-0.341 -0.256,-0.512 -0.171,-0.171 -0.384,-0.309 -0.64,-0.416 -0.256,-0.107 -0.523,-0.192 -0.8,-0.256 -0.277,-0.064 -0.502,-0.096 -0.672,-0.096 -0.853,0 -1.792,0.32 -2.816,0.96 -1.024,0.64 -1.973,1.387 -2.848,2.24 -0.875,0.853 -1.621,1.707 -2.24,2.56 -0.619,0.853 -0.928,1.493 -0.928,1.92 -0.043,0.427 0.096,0.725 0.416,0.896 0.32,0.171 0.651,0.256 0.992,0.256 1.365,0 2.528,-0.267 3.488,-0.8 0.96,-0.533 1.813,-1.184 2.56,-1.952 0.746,-0.768 1.408,-1.568 1.984,-2.4 0.576,-0.832 1.141,-1.568 1.696,-2.208l0.064 -0.192z"/>
  <path id="6" class="fil3" d="M1152.816 692.104c-0.256,0.128 -0.8,0.288 -1.632,0.48 -0.832,0.192 -1.792,0.405 -2.88,0.64 -1.088,0.235 -2.208,0.448 -3.36,0.64 -1.152,0.192 -2.155,0.309 -3.008,0.352 0.042,0.811 0.352,1.397 0.928,1.76 0.576,0.363 1.077,0.544 1.504,0.544 0.597,0 1.248,-0.107 1.952,-0.32 0.704,-0.213 1.418,-0.448 2.144,-0.704 0.725,-0.256 1.44,-0.491 2.144,-0.704 0.704,-0.213 1.376,-0.32 2.016,-0.32 0.426,0 0.864,0.096 1.312,0.288 0.448,0.192 0.842,0.437 1.184,0.736 0.213,0.853 0.437,1.344 0.672,1.472 0.234,0.128 0.48,0.192 0.736,0.192 -0.043,0 -0.011,0.011 0.096,0.032 0.107,0.021 0.224,0.096 0.352,0.224 0.128,0.128 0.245,0.331 0.352,0.608 0.106,0.277 0.138,0.672 0.096,1.184 -0.043,0.896 -0.597,1.685 -1.664,2.368 -1.067,0.683 -2.4,1.269 -4,1.76 -1.6,0.491 -3.35,0.864 -5.248,1.12 -1.899,0.256 -3.701,0.384 -5.408,0.384 -2.091,0 -3.84,-0.192 -5.248,-0.576 -1.408,-0.384 -2.528,-0.939 -3.36,-1.664 -0.832,-0.725 -1.408,-1.589 -1.728,-2.592 -0.32,-1.003 -0.437,-2.144 -0.352,-3.424 0.085,-1.323 0.341,-2.688 0.768,-4.096 0.427,-1.408 0.981,-2.805 1.664,-4.192 0.683,-1.387 1.451,-2.731 2.304,-4.032 0.853,-1.301 1.77,-2.485 2.752,-3.552 1.28,-1.451 2.613,-2.816 4,-4.096 1.387,-1.28 2.88,-2.411 4.48,-3.392 1.6,-0.981 3.328,-1.76 5.184,-2.336 1.856,-0.576 3.915,-0.864 6.176,-0.864 0.896,0 1.76,0.096 2.592,0.288 0.832,0.192 1.568,0.523 2.208,0.992 0.64,0.469 1.13,1.099 1.472,1.888 0.341,0.789 0.491,1.803 0.448,3.04 -0.086,1.152 -0.363,2.56 -0.832,4.224l0 -0.064c-0.683,1.749 -1.344,3.211 -1.984,4.384 -0.64,1.173 -1.365,2.176 -2.176,3.008 -0.811,0.832 -1.75,1.579 -2.816,2.24 -1.067,0.661 -2.347,1.333 -3.84,2.016l0 0.064zm-0.448 -10.304c0.043,-0.213 -0.086,-0.363 -0.384,-0.448 -0.299,-0.085 -0.555,-0.128 -0.768,-0.128 -0.768,0 -1.504,0.213 -2.208,0.64 -0.704,0.427 -1.355,0.981 -1.952,1.664 -0.597,0.683 -1.152,1.451 -1.664,2.304 -0.512,0.853 -0.96,1.728 -1.344,2.624l0.256 0c0.853,0 1.749,-0.256 2.688,-0.768 0.938,-0.512 1.802,-1.12 2.592,-1.824 0.789,-0.704 1.45,-1.44 1.984,-2.208 0.533,-0.768 0.8,-1.387 0.8,-1.856z"/>
  <path id="7" class="fil3" d="M1183.728 702.92c-2.006,1.408 -4.256,2.475 -6.752,3.2 -2.496,0.725 -4.96,1.088 -7.392,1.088 -1.408,0 -2.763,-0.139 -4.064,-0.416 -1.301,-0.277 -2.443,-0.693 -3.424,-1.248 -0.982,-0.555 -1.75,-1.227 -2.304,-2.016 -0.555,-0.789 -0.811,-1.675 -0.768,-2.656 0.043,-0.853 0.299,-1.557 0.768,-2.112 0.469,-0.555 1.067,-0.832 1.792,-0.832 0.128,0 0.267,0.011 0.416,0.032 0.149,0.021 0.288,0.032 0.416,0.032 0.555,0 0.992,-0.171 1.312,-0.512 0.32,-0.341 0.597,-0.715 0.832,-1.12 0.235,-0.405 0.469,-0.779 0.704,-1.12 0.235,-0.341 0.565,-0.512 0.992,-0.512l2.176 0c1.28,0 2.517,-0.032 3.712,-0.096 1.195,-0.064 2.272,-0.192 3.232,-0.384 0.96,-0.192 1.76,-0.437 2.4,-0.736 0.64,-0.299 1.066,-0.704 1.28,-1.216 -0.47,-0.555 -0.982,-0.981 -1.536,-1.28 -0.555,-0.299 -1.131,-0.597 -1.728,-0.896 -0.725,-0.341 -1.419,-0.704 -2.08,-1.088 -0.661,-0.384 -1.237,-0.843 -1.728,-1.376 -0.491,-0.533 -0.875,-1.173 -1.152,-1.92 -0.277,-0.747 -0.395,-1.632 -0.352,-2.656 0.085,-1.323 0.405,-2.453 0.96,-3.392 0.171,-1.451 0.96,-2.827 2.368,-4.128 1.408,-1.301 3.114,-2.432 5.12,-3.392 2.005,-0.96 4.181,-1.728 6.528,-2.304 2.346,-0.576 4.565,-0.864 6.656,-0.864 1.152,0 2.048,0.139 2.688,0.416 0.64,0.277 1.12,0.619 1.44,1.024 0.32,0.405 0.523,0.864 0.608,1.376 0.085,0.512 0.107,1.003 0.064,1.472 -0.043,1.024 -0.544,2.016 -1.504,2.976 -0.96,0.96 -2.336,1.675 -4.128,2.144 -1.75,0.299 -2.987,0.544 -3.712,0.736 -0.726,0.192 -1.216,0.352 -1.472,0.48 -0.256,0.128 -0.438,0.245 -0.544,0.352 -0.107,0.107 -0.416,0.245 -0.928,0.416 0.896,0.725 1.76,1.493 2.592,2.304 0.832,0.811 1.568,1.664 2.208,2.56 0.64,0.896 1.13,1.867 1.472,2.912 0.341,1.045 0.491,2.144 0.448,3.296 -0.086,0.896 -0.256,1.824 -0.512,2.784 -0.256,0.96 -0.683,1.995 -1.28,3.104 -0.043,0.427 -0.224,0.864 -0.544,1.312 -0.32,0.448 -0.715,0.896 -1.184,1.344 -0.469,0.448 -0.982,0.864 -1.536,1.248 -0.555,0.384 -1.067,0.725 -1.536,1.024l-1.024 0.64z"/>
  <path id="8" class="fil3" d="M1224.816 702.6c0.043,-0.469 0.181,-1.173 0.416,-2.112 0.235,-0.939 0.523,-1.995 0.864,-3.168 0.341,-1.173 0.693,-2.411 1.056,-3.712 0.363,-1.301 0.715,-2.528 1.056,-3.68 0.341,-1.152 0.651,-2.197 0.928,-3.136 0.277,-0.939 0.459,-1.621 0.544,-2.048 -0.085,-0.085 -0.224,-0.171 -0.416,-0.256 -0.192,-0.085 -0.352,-0.171 -0.48,-0.256 -0.384,-0.213 -0.64,-0.405 -0.768,-0.576 -0.128,-0.171 -0.224,-0.341 -0.288,-0.512 -0.064,-0.171 -0.171,-0.363 -0.32,-0.576 -0.149,-0.213 -0.459,-0.448 -0.928,-0.704l-0.256 0c-0.555,0 -0.971,-0.181 -1.248,-0.544 -0.277,-0.363 -0.395,-0.8 -0.352,-1.312 0.043,-0.725 0.384,-1.483 1.024,-2.272 0.64,-0.789 1.643,-1.419 3.008,-1.888l-0.064 0 7.168 -2.176c0.512,-1.365 1.109,-2.688 1.792,-3.968 0.683,-1.28 1.408,-2.496 2.176,-3.648 0.768,-1.152 1.546,-2.219 2.336,-3.2 0.789,-0.981 1.525,-1.899 2.208,-2.752l1.088 -1.344c1.067,-1.195 2.261,-2.272 3.584,-3.232 1.323,-0.96 2.677,-1.771 4.064,-2.432 1.387,-0.661 2.741,-1.163 4.064,-1.504 1.323,-0.341 2.538,-0.512 3.648,-0.512 1.707,0 3.051,0.213 4.032,0.64 0.981,0.427 1.728,0.96 2.24,1.6 0.512,0.64 0.821,1.323 0.928,2.048 0.107,0.725 0.16,1.365 0.16,1.92 -0.043,0.725 -0.224,1.419 -0.544,2.08 -0.32,0.661 -0.736,1.227 -1.248,1.696 -0.512,0.469 -1.088,0.843 -1.728,1.12 -0.64,0.277 -1.302,0.416 -1.984,0.416 -0.981,0 -1.6,-0.576 -1.856,-1.728 -0.085,0.64 -0.405,1.44 -0.96,2.4 -0.555,0.96 -1.248,1.941 -2.08,2.944 -0.832,1.003 -1.739,1.963 -2.72,2.88 -0.981,0.917 -1.899,1.653 -2.752,2.208 0.725,-0.128 1.493,-0.213 2.304,-0.256 0.811,-0.043 1.579,-0.085 2.304,-0.128 0.341,0.299 0.49,0.725 0.448,1.28 -0.043,0.64 -0.267,1.333 -0.672,2.08 -0.405,0.747 -0.928,1.355 -1.568,1.824 -0.598,0.725 -1.174,1.312 -1.728,1.76 -0.555,0.448 -1.141,0.832 -1.76,1.152 -0.619,0.32 -1.312,0.597 -2.08,0.832 -0.768,0.235 -1.664,0.48 -2.688,0.736l-1.792 0.384c-0.555,0.981 -1.184,2.229 -1.888,3.744 -0.704,1.515 -1.451,3.125 -2.24,4.832 -0.789,1.707 -1.579,3.424 -2.368,5.152 -0.789,1.728 -1.536,3.285 -2.24,4.672 -0.704,1.387 -1.323,2.539 -1.856,3.456 -0.533,0.917 -0.928,1.419 -1.184,1.504 -0.939,1.152 -1.877,1.973 -2.816,2.464 -0.939,0.491 -1.792,0.736 -2.56,0.736 -1.024,0 -1.867,-0.32 -2.528,-0.96 -0.661,-0.64 -0.971,-1.429 -0.928,-2.368 0.085,-0.555 0.235,-1.045 0.448,-1.472l0 -0.128z"/>
  <path id="9" class="fil3" d="M1264.176 674.056c0.64,-0.341 1.323,-0.512 2.048,-0.512 0.427,0 0.768,0.032 1.024,0.096 0.256,0.064 0.619,0.096 1.088,0.096 0.981,-1.408 2.016,-2.293 3.104,-2.656 1.088,-0.363 2.08,-0.544 2.976,-0.544 0.598,0 1.216,-0.043 1.856,-0.128 0.64,-0.085 1.216,-0.128 1.728,-0.128 1.749,0 3.232,0.235 4.448,0.704 1.216,0.469 2.197,1.109 2.944,1.92 0.747,0.811 1.269,1.792 1.568,2.944 0.299,1.152 0.405,2.389 0.32,3.712 -0.085,1.707 -0.437,3.552 -1.056,5.536 -0.619,1.984 -1.461,3.968 -2.528,5.952 -1.067,1.984 -2.346,3.904 -3.84,5.76 -1.493,1.856 -3.136,3.509 -4.928,4.96 -1.749,1.237 -3.531,2.069 -5.344,2.496 -1.813,0.427 -3.467,0.683 -4.96,0.768 -1.365,0 -2.827,-0.032 -4.384,-0.096 -1.557,-0.064 -2.976,-0.363 -4.256,-0.896 -1.28,-0.533 -2.325,-1.387 -3.136,-2.56 -0.811,-1.173 -1.152,-2.869 -1.024,-5.088 0.085,-1.92 0.523,-4.021 1.312,-6.304 0.789,-2.283 1.771,-4.48 2.944,-6.592 1.174,-2.112 2.475,-4.011 3.904,-5.696 1.429,-1.685 2.827,-2.933 4.192,-3.744zm8.64 12.544c-0.469,0.128 -0.928,0.235 -1.376,0.32 -0.448,0.085 -0.885,0.128 -1.312,0.128l-0.384 0c-0.341,0.384 -0.928,0.896 -1.76,1.536 -0.832,0.64 -1.685,1.387 -2.56,2.24 -0.874,0.853 -1.664,1.771 -2.368,2.752 -0.704,0.981 -1.077,2.005 -1.12,3.072 -0.043,0.811 0.171,1.237 0.64,1.28 0.469,0.043 1.067,0.064 1.792,0.064 1.451,0 2.72,-0.363 3.808,-1.088 1.088,-0.725 1.984,-1.643 2.688,-2.752 0.704,-1.109 1.248,-2.315 1.632,-3.616 0.384,-1.301 0.619,-2.507 0.704,-3.616l-0.384 -0.32z"/>
  <path id="10" class="fil3" d="M1285.168 697.032c0.555,-3.413 1.888,-7.125 4,-11.136 2.112,-4.011 4.981,-8.213 8.608,-12.608 1.792,-1.408 3.605,-2.112 5.44,-2.112 1.323,0 2.432,0.363 3.328,1.088 0.896,0.725 1.302,1.643 1.216,2.752 -0.043,0.384 -0.139,0.811 -0.288,1.28 -0.149,0.469 -0.373,0.939 -0.672,1.408 -1.877,2.133 -3.584,4.608 -5.12,7.424 -1.536,2.816 -2.923,5.568 -4.16,8.256 1.835,-1.024 3.456,-2.091 4.864,-3.2 1.408,-1.109 2.688,-2.251 3.84,-3.424 1.152,-1.173 2.208,-2.368 3.168,-3.584 0.96,-1.216 1.931,-2.464 2.912,-3.744l3.136 -4.288 2.624 -3.264c0.384,-0.725 0.896,-1.184 1.536,-1.376 0.64,-0.192 1.323,-0.288 2.048,-0.288l0.832 0c1.152,0 2.197,-0.181 3.136,-0.544 0.939,-0.363 1.792,-0.544 2.56,-0.544 0.512,0 0.992,0.096 1.44,0.288 0.448,0.192 0.853,0.427 1.216,0.704 0.363,0.277 0.64,0.608 0.832,0.992 0.192,0.384 0.267,0.768 0.224,1.152 0,0.341 -0.085,0.661 -0.256,0.96 -1.365,2.048 -2.731,4.363 -4.096,6.944 -1.365,2.581 -2.698,5.163 -4,7.744 -1.301,2.582 -2.528,5.035 -3.68,7.36 -1.152,2.325 -2.197,4.277 -3.136,5.856l0 -0.064c-1.109,1.109 -2.357,1.909 -3.744,2.4 -1.386,0.491 -2.72,0.736 -4,0.736 -1.365,0 -2.517,-0.256 -3.456,-0.768 -0.938,-0.512 -1.365,-1.216 -1.28,-2.112 0,-0.469 0.171,-0.939 0.512,-1.408l-0.384 -0.384c-1.706,1.237 -3.499,2.304 -5.376,3.2 -1.877,0.896 -3.904,1.344 -6.08,1.344 -1.067,0 -2.091,-0.128 -3.072,-0.384 -0.981,-0.256 -1.835,-0.64 -2.56,-1.152 -0.725,-0.512 -1.291,-1.173 -1.696,-1.984 -0.405,-0.811 -0.586,-1.771 -0.544,-2.88 0.085,-0.256 0.128,-0.491 0.128,-0.704l0 0.064z"/>
  <path id="11" class="fil3" d="M1335.536 676.488c0.981,-1.195 1.685,-1.995 2.112,-2.4 0.427,-0.405 0.768,-0.608 1.024,-0.608 0.128,0 0.341,0.107 0.64,0.32 0.938,-0.341 1.706,-0.576 2.304,-0.704 0.597,-0.128 1.109,-0.192 1.536,-0.192 0.938,0 1.514,0.32 1.728,0.96 0.213,0.64 0.299,1.259 0.256,1.856 0,0.469 -0.043,0.875 -0.128,1.216 0.896,-0.811 2.058,-1.6 3.488,-2.368 1.429,-0.768 2.976,-1.451 4.64,-2.048 1.664,-0.597 3.36,-1.088 5.088,-1.472 1.728,-0.384 3.296,-0.576 4.704,-0.576 2.56,0 4.363,0.587 5.408,1.76 1.045,1.173 1.504,2.784 1.376,4.832 -0.086,1.792 -0.544,3.787 -1.376,5.984 -0.832,2.197 -1.888,4.469 -3.168,6.816l0 -0.064c-0.469,0.725 -0.885,1.397 -1.248,2.016 -0.363,0.619 -0.693,1.163 -0.992,1.632 -0.469,0.768 -1.12,1.728 -1.952,2.88 -0.832,1.152 -1.803,2.272 -2.912,3.36 -1.11,1.088 -2.379,2.016 -3.808,2.784 -1.43,0.768 -2.976,1.152 -4.64,1.152 -0.896,0 -1.653,-0.149 -2.272,-0.448 -0.619,-0.299 -0.907,-0.747 -0.864,-1.344 0,-0.128 0.043,-0.277 0.128,-0.448 0.085,-0.171 0.17,-0.363 0.256,-0.576l3.712 -6.848c1.365,-2.517 2.453,-4.555 3.264,-6.112 0.81,-1.557 1.259,-2.784 1.344,-3.68 0,-0.853 -0.342,-1.28 -1.024,-1.28 -0.854,0 -1.888,0.555 -3.104,1.664 -1.216,1.109 -2.528,2.517 -3.936,4.224 -1.408,1.707 -2.88,3.605 -4.416,5.696 -1.536,2.091 -3.051,4.096 -4.544,6.016 -0.512,0.683 -0.928,1.109 -1.248,1.28 -0.32,0.171 -0.587,0.288 -0.8,0.352 -0.213,0.064 -0.395,0.149 -0.544,0.256 -0.149,0.107 -0.331,0.416 -0.544,0.928 -0.128,0.384 -0.416,0.725 -0.864,1.024 -0.448,0.299 -0.992,0.555 -1.632,0.768 -0.64,0.213 -1.333,0.373 -2.08,0.48 -0.747,0.107 -1.504,0.16 -2.272,0.16 -0.341,0 -0.843,-0.032 -1.504,-0.096 -0.661,-0.064 -1.323,-0.192 -1.984,-0.384 -0.661,-0.192 -1.227,-0.469 -1.696,-0.832 -0.469,-0.363 -0.683,-0.821 -0.64,-1.376 0.043,-0.853 0.363,-2.059 0.96,-3.616 0.597,-1.557 1.355,-3.275 2.272,-5.152 0.917,-1.877 1.909,-3.808 2.976,-5.792 1.067,-1.984 2.08,-3.819 3.04,-5.504 0.96,-1.685 1.803,-3.115 2.528,-4.288 0.725,-1.173 1.195,-1.909 1.408,-2.208z"/>
  <path id="12" class="fil3" d="M1383.92 675.208c0.597,-0.341 1.248,-0.597 1.952,-0.768 0.704,-0.171 1.397,-0.256 2.08,-0.256 1.152,0 2.165,0.331 3.04,0.992 0.874,0.661 1.291,1.568 1.248,2.72 0.512,-0.939 0.885,-1.632 1.12,-2.08 0.234,-0.448 0.405,-0.779 0.512,-0.992 0.106,-0.213 0.181,-0.395 0.224,-0.544 0.042,-0.149 0.128,-0.395 0.256,-0.736l2.176 -4.8c0.512,-1.152 1.194,-2.581 2.048,-4.288 0.853,-1.707 1.781,-3.424 2.784,-5.152 1.003,-1.728 2.005,-3.328 3.008,-4.8 1.002,-1.472 1.909,-2.549 2.72,-3.232 0.597,-0.341 1.227,-0.587 1.888,-0.736 0.661,-0.149 1.269,-0.224 1.824,-0.224 1.322,0 2.421,0.331 3.296,0.992 0.874,0.661 1.29,1.397 1.248,2.208 -0.043,0.213 -0.086,0.416 -0.128,0.608 -0.043,0.192 -0.064,0.395 -0.064,0.608 0,0.341 0.053,0.651 0.16,0.928 0.107,0.277 0.234,0.544 0.384,0.8 0.149,0.256 0.277,0.491 0.384,0.704 0.107,0.213 0.16,0.448 0.16,0.704 0,0.171 -0.043,0.341 -0.128,0.512 -1.664,3.755 -3.616,7.509 -5.856,11.264 -2.24,3.755 -4.459,7.435 -6.656,11.04 -2.197,3.605 -4.224,7.115 -6.08,10.528 -1.856,3.413 -3.232,6.677 -4.128,9.792 -0.128,0.597 -0.427,1.141 -0.896,1.632 -0.47,0.491 -1.035,0.907 -1.696,1.248 -0.662,0.341 -1.387,0.619 -2.176,0.832 -0.79,0.213 -1.59,0.32 -2.4,0.32 -0.384,0 -0.832,-0.053 -1.344,-0.16 -0.512,-0.107 -0.992,-0.235 -1.44,-0.384 -0.448,-0.149 -0.822,-0.299 -1.12,-0.448 -0.299,-0.149 -0.448,-0.267 -0.448,-0.352 -0.256,-0.171 -0.384,-0.405 -0.384,-0.704 0,-0.128 0.032,-0.448 0.096,-0.96 0.064,-0.512 0.117,-1.024 0.16,-1.536 -1.067,1.216 -2.048,2.101 -2.944,2.667 -0.896,0.565 -2.006,0.853 -3.328,0.853 -1.323,0 -2.56,-0.085 -3.712,-0.256 -1.152,-0.171 -2.155,-0.491 -3.008,-0.96 -0.854,-0.469 -1.515,-1.109 -1.984,-1.909 -0.469,-0.811 -0.661,-1.835 -0.576,-3.072 0.042,-1.195 0.491,-2.827 1.344,-4.918 0.853,-2.08 2.048,-4.256 3.584,-6.506 1.536,-2.262 3.381,-4.416 5.536,-6.454 2.154,-2.048 4.554,-3.594 7.2,-4.661l0.064 -0.064zm-4.48 21.504c0.384,0.171 0.81,0.256 1.28,0.256 0.853,0 1.536,-0.384 2.048,-1.152 0.512,-0.768 1.13,-1.856 1.856,-3.264l1.472 -2.816 0.448 -1.216c-0.64,-0.384 -1.259,-0.576 -1.856,-0.576 -0.726,0 -1.43,0.203 -2.112,0.608 -0.683,0.405 -1.291,0.928 -1.824,1.568 -0.534,0.64 -0.96,1.355 -1.28,2.144 -0.32,0.789 -0.502,1.547 -0.544,2.272 -0.086,0.725 0.042,1.408 0.384,2.048l0.128 0.128z"/>
 </g>
</svg>
