<?xml version="1.0" encoding="UTF-8"?>
<!DOCTYPE svg PUBLIC "-//W3C//DTD SVG 1.1//EN" "http://www.w3.org/Graphics/SVG/1.1/DTD/svg11.dtd">
<!-- Creator: CorelDRAW 2020 (64-Bit) -->
<svg xmlns="http://www.w3.org/2000/svg" xml:space="preserve" width="0.84666cm" height="0.84666cm" version="1.1" style="shape-rendering:geometricPrecision; text-rendering:geometricPrecision; image-rendering:optimizeQuality; fill-rule:evenodd; clip-rule:evenodd"
viewBox="0 0 846.66 846.66"
 xmlns:xlink="http://www.w3.org/1999/xlink"
 xmlns:xodm="http://www.corel.com/coreldraw/odm/2003">
 <defs>
  <style type="text/css">
   <![CDATA[
    .fil0 {fill:#F5A200}
    .fil1 {fill:white;fill-rule:nonzero}
   ]]>
  </style>
 </defs>
 <g id="Слой_x0020_1">
  <metadata id="CorelCorpID_0Corel-Layer"/>
  <rect class="fil0" width="846.66" height="846.66"/>
  <path class="fil1" d="M250.9 718.81l-122.48 0c1.12,-8.32 1.69,-16.37 1.69,-23.99l0 -457.2c-28.65,23.57 -55.04,35.99 -79.31,37.11l0 -103.29c48.97,-2.82 84.81,-19.61 107.39,-50.52l91.02 0 0 574.75c0,7.06 0.56,14.82 1.69,23.14z"/>
  <path id="1" class="fil1" d="M788.26 719.66l-352.22 0c1.13,-63.5 13.27,-118.82 36.41,-166.23 17.64,-35.28 42.76,-69.14 75.21,-101.74 17.08,-16.51 42.2,-41.06 75.22,-73.52 24.83,-30.34 37.25,-61.24 37.25,-92.71 0,-52.35 -18.2,-78.46 -54.61,-78.46 -23.14,0 -39.65,14.25 -49.53,42.9 -6.63,21.02 -9.17,45.01 -7.48,71.97l-122.34 0c5.5,-141.68 67.45,-212.52 185.98,-212.52 56.3,0 99.77,15.52 130.67,46.29 30.34,29.77 45.44,72.81 45.44,128.97 0,36.41 -6.92,67.88 -20.6,94.27 -12.14,24.27 -32.88,48.82 -62.09,73.66 -11.57,9.87 -40.5,33.3 -86.79,70.27 -26.38,25.4 -45.43,56.44 -57.01,93.42l199.25 0c7.76,0 16.8,-0.57 27.24,-1.7l0 105.13z"/>
 </g>
</svg>
