<?xml version="1.0" encoding="UTF-8"?>
<!DOCTYPE svg PUBLIC "-//W3C//DTD SVG 1.1//EN" "http://www.w3.org/Graphics/SVG/1.1/DTD/svg11.dtd">
<!-- Creator: CorelDRAW 2020 (64-Bit) -->
<svg xmlns="http://www.w3.org/2000/svg" xml:space="preserve" width="0.84666cm" height="0.84666cm" version="1.1" style="shape-rendering:geometricPrecision; text-rendering:geometricPrecision; image-rendering:optimizeQuality; fill-rule:evenodd; clip-rule:evenodd"
viewBox="0 0 846.66 846.66"
 xmlns:xlink="http://www.w3.org/1999/xlink"
 xmlns:xodm="http://www.corel.com/coreldraw/odm/2003">
 <defs>
  <style type="text/css">
   <![CDATA[
    .fil0 {fill:#F5A200}
    .fil1 {fill:white;fill-rule:nonzero}
   ]]>
  </style>
 </defs>
 <g id="Слой_x0020_1">
  <metadata id="CorelCorpID_0Corel-Layer"/>
  <rect class="fil0" x="-0.01" width="855.13" height="863.6"/>
  <path class="fil1" d="M259.36 721.78l-122.48 0c1.12,-8.32 1.69,-16.37 1.69,-23.99l0 -457.2c-28.65,23.57 -55.04,35.99 -79.31,37.11l0 -103.29c48.97,-2.82 84.81,-19.61 107.39,-50.52l91.02 0 0 574.75c0,7.06 0.56,14.82 1.69,23.14z"/>
  <path id="1" class="fil1" d="M799.26 280.24l-128.13 0c0.99,-20.46 -2.26,-37.53 -10.02,-51.22 -8.75,-16.65 -23.14,-24.83 -42.9,-24.83 -22.72,0 -38.38,20.32 -47.13,61.1 -3.95,16.08 -7.2,44.73 -10.02,86.08 32.6,-20.47 58.99,-30.63 79.45,-30.63 54.04,0 94.54,20.61 121.49,61.95 23.71,35.84 35.56,81.85 35.56,138.15 0,65.62 -11,115.15 -33.02,148.87 -28.64,44.59 -76.62,66.89 -143.93,66.89 -72.25,0 -122.34,-23.99 -150.42,-71.97 -25.4,-42.89 -38.1,-116.56 -38.1,-220.7 0,-95.95 8.32,-168.34 24.83,-217.45 28.08,-81 80.72,-121.5 157.91,-121.5 108.09,0 169.47,58.42 184.43,175.26zm-128.98 240.6c0,-60.68 -19.05,-91.02 -57.15,-91.02 -14.81,0 -27.8,7.2 -38.8,21.59 -2.68,3.25 -9.03,13.69 -19.05,31.33 1.69,48.54 4.23,80.29 7.48,95.11 9.31,39.09 28.92,58.7 58.7,58.7 32.59,0 48.82,-38.52 48.82,-115.71z"/>
 </g>
</svg>
