<?xml version="1.0" encoding="UTF-8"?>
<!DOCTYPE svg PUBLIC "-//W3C//DTD SVG 1.1//EN" "http://www.w3.org/Graphics/SVG/1.1/DTD/svg11.dtd">
<!-- Creator: CorelDRAW 2020 (64-Bit) -->
<svg xmlns="http://www.w3.org/2000/svg" xml:space="preserve" width="0.84666cm" height="0.84666cm" version="1.1" style="shape-rendering:geometricPrecision; text-rendering:geometricPrecision; image-rendering:optimizeQuality; fill-rule:evenodd; clip-rule:evenodd"
viewBox="0 0 846.66 846.66"
 xmlns:xlink="http://www.w3.org/1999/xlink"
 xmlns:xodm="http://www.corel.com/coreldraw/odm/2003">
 <defs>
  <style type="text/css">
   <![CDATA[
    .fil0 {fill:#E2011A}
    .fil1 {fill:white;fill-rule:nonzero}
   ]]>
  </style>
 </defs>
 <g id="Слой_x0020_1">
  <metadata id="CorelCorpID_0Corel-Layer"/>
  <rect class="fil0" y="-0.02" width="863.6" height="872.07"/>
  <path class="fil1" d="M267.82 731.04l-122.49 0c1.13,-8.35 1.7,-16.42 1.7,-24.07l0 -458.74c-28.64,23.65 -55.04,36.11 -79.3,37.24l0 -103.64c48.96,-2.83 84.8,-19.68 107.37,-50.69l91.03 0 0 576.68c0,7.08 0.56,14.87 1.69,23.22z"/>
  <path id="1" class="fil1" d="M807.71 576.71c0,112.28 -58.42,168.35 -175.25,168.35 -117.41,0 -176.11,-56.07 -176.11,-168.35 0,-65.84 29.63,-120.91 89.18,-165.09 -26.39,-21.09 -45.16,-40.91 -56.16,-59.75 -13.27,-22.08 -19.9,-48.42 -19.9,-78.86 0,-47.57 15.8,-86.51 47.13,-116.95 30.34,-29.31 69.28,-43.89 116.55,-43.89 47.98,0 86.93,14.58 116.7,43.89 29.78,29.88 44.6,68.81 44.6,116.95 0,50.41 -23.99,96.28 -71.97,137.76 56.87,49.84 85.23,105.06 85.23,165.94zm-136.45 -306.11c0,-40.91 -12.98,-61.44 -38.8,-61.44 -25.98,0 -38.95,20.53 -38.95,61.44 0,25.35 13.82,49.13 41.34,71.36 24.28,-18.83 36.41,-42.61 36.41,-71.36zm13.26 308.52c0,-39.79 -17.07,-75.75 -51.37,-107.75 -34.71,33.13 -52.06,69.1 -52.06,107.75 0,48.14 17.07,72.21 51.37,72.21 34.71,0 52.06,-24.07 52.06,-72.21z"/>
 </g>
</svg>
