<?xml version="1.0" encoding="UTF-8"?>
<!DOCTYPE svg PUBLIC "-//W3C//DTD SVG 1.1//EN" "http://www.w3.org/Graphics/SVG/1.1/DTD/svg11.dtd">
<!-- Creator: CorelDRAW 2020 (64-Bit) -->
<svg xmlns="http://www.w3.org/2000/svg" xml:space="preserve" width="0.84666cm" height="0.84666cm" version="1.1" style="shape-rendering:geometricPrecision; text-rendering:geometricPrecision; image-rendering:optimizeQuality; fill-rule:evenodd; clip-rule:evenodd"
viewBox="0 0 846.66 846.66"
 xmlns:xlink="http://www.w3.org/1999/xlink"
 xmlns:xodm="http://www.corel.com/coreldraw/odm/2003">
 <defs>
  <style type="text/css">
   <![CDATA[
    .fil0 {fill:#A5C400}
    .fil1 {fill:white;fill-rule:nonzero}
   ]]>
  </style>
 </defs>
 <g id="Слой_x0020_1">
  <metadata id="CorelCorpID_0Corel-Layer"/>
  <rect class="fil0" x="-0" y="-6.17" width="845.88" height="852.83"/>
  <path class="fil1" d="M612 555.54c0,55.03 -15.24,99.2 -45.58,132.22 -30.2,32.6 -72.95,48.83 -128.13,48.83 -66.18,0 -114.02,-20.18 -143.79,-60.4 -25.97,-34.15 -39.51,-85.37 -40.5,-153.81l121.5 0 0 10.02c0,26.39 1.69,46.28 4.94,59.55 8.32,30.2 25.96,45.44 52.91,45.44 34.72,0 52.07,-32.32 52.07,-96.81 0,-33.58 -4.09,-56.72 -12.42,-69.42 -10.44,-17.08 -31.32,-25.69 -62.79,-25.69l-50.38 0 0 -90.03 62.8 0c40.21,0 60.39,-26.24 60.39,-78.6 0,-47.97 -15.8,-71.96 -47.13,-71.96 -16.65,0 -29.21,7.19 -38.1,21.59 -8.75,13.26 -13.26,28.64 -13.26,46.28 0,3.81 0.28,7.76 0.84,11.57l-118.25 0c2.26,-52.91 16.51,-95.11 43.04,-126.57 29.21,-35.28 69.43,-52.92 120.65,-52.92 52.92,0 95.11,14.11 126.58,42.19 32.03,28.65 47.98,69.01 47.98,120.79 0,56.17 -23.99,101.46 -71.97,135.61 31.47,15.95 52.63,36.27 63.64,61.1 10.02,21.03 14.96,51.37 14.96,91.02z"/>
 </g>
</svg>
